<svg width="1440" height="342" viewBox="0 0 1440 342" fill="none" xmlns="http://www.w3.org/2000/svg">
<g clip-path="url(#clip0_2850_5649)">
<line opacity="0.0526316" x1="1406.12" y1="-63.1798" x2="600.555" y2="401.915" stroke="#FF1D00"/>
<line opacity="0.105263" x1="1423.55" y1="-53.5025" x2="659.862" y2="387.416" stroke="#FF1D00"/>
<line opacity="0.157895" x1="1440.99" y1="-43.8277" x2="719.173" y2="372.914" stroke="#FF1D00"/>
<line opacity="0.210526" x1="1458.42" y1="-34.151" x2="778.475" y2="358.414" stroke="#FF1D00"/>
<line opacity="0.263158" x1="1475.85" y1="-24.4757" x2="837.782" y2="343.913" stroke="#FF1D00"/>
<line opacity="0.315789" x1="1493.28" y1="-14.7979" x2="897.089" y2="329.414" stroke="#FF1D00"/>
<line opacity="0.368421" x1="1510.71" y1="-5.12363" x2="956.395" y2="314.912" stroke="#FF1D00"/>
<line opacity="0.421053" x1="1528.14" y1="4.55362" x2="1015.7" y2="300.413" stroke="#FF1D00"/>
<line opacity="0.473684" x1="1545.57" y1="14.2314" x2="1075" y2="285.914" stroke="#FF1D00"/>
<line opacity="0.526316" x1="1563" y1="23.9076" x2="1134.31" y2="271.413" stroke="#FF1D00"/>
<line opacity="0.578947" x1="1580.43" y1="33.5844" x2="1193.61" y2="256.914" stroke="#FF1D00"/>
<line opacity="0.631579" x1="1597.86" y1="43.2592" x2="1252.92" y2="242.412" stroke="#FF1D00"/>
<line opacity="0.684211" x1="1615.29" y1="52.9359" x2="1312.23" y2="227.912" stroke="#FF1D00"/>
<line opacity="0.736842" x1="1632.72" y1="62.6137" x2="1371.53" y2="213.413" stroke="#FF1D00"/>
<line opacity="0.789474" x1="1650.15" y1="72.2904" x2="1430.84" y2="198.914" stroke="#FF1D00"/>
</g>
<defs>
<clipPath id="clip0_2850_5649">
<rect width="1440" height="415" fill="white" transform="translate(0 0.626953)"/>
</clipPath>
</defs>
</svg>
