<svg width="390" height="258" viewBox="0 0 390 258" fill="none" xmlns="http://www.w3.org/2000/svg">
<g clipPath="url(#clip0_3287_28820)">
<line opacity="0.0526316" x1="363.304" y1="-88.5035" x2="-51.2317" y2="150.829" stroke="#FF1D00"/>
<line opacity="0.105263" x1="372.274" y1="-83.524" x2="-20.7126" y2="143.367" stroke="#FF1D00"/>
<line opacity="0.157895" x1="381.246" y1="-78.545" x2="9.80744" y2="135.905" stroke="#FF1D00"/>
<line opacity="0.210526" x1="390.215" y1="-73.566" x2="40.3246" y2="128.443" stroke="#FF1D00"/>
<line opacity="0.263158" x1="399.185" y1="-68.587" x2="70.8427" y2="120.981" stroke="#FF1D00"/>
<line opacity="0.315789" x1="408.154" y1="-63.607" x2="101.361" y2="113.52" stroke="#FF1D00"/>
<line opacity="0.368421" x1="417.124" y1="-58.6285" x2="131.879" y2="106.058" stroke="#FF1D00"/>
<line opacity="0.421053" x1="426.094" y1="-53.6485" x2="162.397" y2="98.5969" stroke="#FF1D00"/>
<line opacity="0.473684" x1="435.061" y1="-48.6685" x2="192.912" y2="91.1359" stroke="#FF1D00"/>
<line opacity="0.526316" x1="444.031" y1="-43.6895" x2="223.431" y2="83.6739" stroke="#FF1D00"/>
<line opacity="0.578947" x1="453.001" y1="-38.7101" x2="253.949" y2="76.2125" stroke="#FF1D00"/>
<line opacity="0.631579" x1="461.971" y1="-33.7315" x2="284.467" y2="68.7501" stroke="#FF1D00"/>
<line opacity="0.684211" x1="470.94" y1="-28.752" x2="314.985" y2="61.2886" stroke="#FF1D00"/>
<line opacity="0.736842" x1="479.911" y1="-23.7721" x2="345.505" y2="53.8276" stroke="#FF1D00"/>
<line opacity="0.789474" x1="488.879" y1="-18.7921" x2="376.021" y2="46.3666" stroke="#FF1D00"/>
</g>
<defs>
<clipPath id="clip0_3287_28820">
<rect width="390" height="257" fill="white" transform="translate(0 0.929199)"/>
</clipPath>
</defs>
</svg>
