<svg width="124" height="66" viewBox="0 0 124 66" fill="none" xmlns="http://www.w3.org/2000/svg">
<g opacity="0.8">
<line opacity="0.642857" y1="-0.550573" x2="124" y2="-0.550573" transform="matrix(1 0 0 -1 0.00195312 59.4619)" stroke="#FF1D00" stroke-width="1.10115"/>
<line opacity="0.571429" y1="-0.550573" x2="124" y2="-0.550573" transform="matrix(1 0 0 -1 0.00195312 52.8545)" stroke="#FF1D00" stroke-width="1.10115"/>
<line opacity="0.5" y1="-0.550573" x2="124" y2="-0.550573" transform="matrix(1 0 0 -1 0.00195312 46.248)" stroke="#FF1D00" stroke-width="1.10115"/>
<line opacity="0.428571" y1="-0.550573" x2="124" y2="-0.550573" transform="matrix(1 0 0 -1 0.00195312 39.6406)" stroke="#FF1D00" stroke-width="1.10115"/>
<line opacity="0.357143" y1="-0.550573" x2="124" y2="-0.550573" transform="matrix(1 0 0 -1 0.00195312 33.0342)" stroke="#FF1D00" stroke-width="1.10115"/>
<line opacity="0.285714" y1="-0.550573" x2="124" y2="-0.550573" transform="matrix(1 0 0 -1 0.00195312 26.4268)" stroke="#FF1D00" stroke-width="1.10115"/>
<line opacity="0.214286" y1="-0.550573" x2="124" y2="-0.550573" transform="matrix(1 0 0 -1 0.00195312 19.8203)" stroke="#FF1D00" stroke-width="1.10115"/>
<line opacity="0.142857" y1="-0.550573" x2="124" y2="-0.550573" transform="matrix(1 0 0 -1 0.00195312 13.2129)" stroke="#FF1D00" stroke-width="1.10115"/>
<line opacity="0.0714286" y1="-0.550573" x2="124" y2="-0.550573" transform="matrix(1 0 0 -1 0.00195312 6.60645)" stroke="#FF1D00" stroke-width="1.10115"/>
</g>
</svg>
