<svg width="245" height="61" viewBox="0 0 245 61" fill="none" xmlns="http://www.w3.org/2000/svg">
<g clipPath="url(#clip0_3813_509)">
<path fill-rule="evenodd" clip-rule="evenodd" d="M50.7855 9.66332L51.1091 11.5932C51.3594 13.3652 51.4673 15.1525 51.4326 16.9438C51.4403 20.8998 50.9781 24.8405 50.0574 28.6887C48.8325 33.9045 46.683 38.8582 43.7092 43.3151C40.2655 48.4152 35.3271 53.3883 28.1198 57.4445L27.2339 57.9453L26.344 57.4445C19.1368 53.4345 14.1599 48.4152 10.7585 43.3151C7.77316 38.8621 5.61984 33.9045 4.40259 28.6849C3.47809 24.8367 3.01584 20.8921 3.0274 16.936C3.01199 15.1487 3.11984 13.3613 3.35097 11.5855L3.63217 9.65562C3.67454 9.50539 3.67454 9.34745 3.63217 9.19722C3.60521 9.03928 3.53587 8.89676 3.42801 8.77734C3.34327 8.65022 3.23156 8.54237 3.10444 8.45377C2.97732 8.38058 2.8425 8.32665 2.70382 8.28813C2.55744 8.2419 2.40336 8.2419 2.25698 8.28813C2.1029 8.31124 1.96037 8.38443 1.85251 8.49229C1.72539 8.57703 1.61753 8.68874 1.52894 8.81586C1.45189 8.95839 1.39411 9.11633 1.3633 9.27426L1.03972 11.2042C0.789336 13.1071 0.669922 15.0216 0.669922 16.936C0.669922 21.0886 1.15914 25.2296 2.12986 29.2666C2.77316 32.0169 3.66684 34.7057 4.79935 37.2943C5.92416 39.879 7.27624 42.3521 8.84789 44.6941C12.4496 50.0871 17.7115 55.3528 25.2539 59.5324L26.6715 60.322C26.8487 60.4068 27.0413 60.4492 27.2377 60.4492C27.4342 60.4492 27.6268 60.4068 27.804 60.322L29.2215 59.5324C36.7485 55.349 42.0104 50.0408 45.6276 44.6941C48.7747 39.9985 51.0513 34.7712 52.3456 29.2704C53.3086 25.2296 53.7863 21.0924 53.7786 16.9399C53.7786 15.01 53.6553 13.084 53.4165 11.1733L53.0929 9.24344C53.0582 9.08551 53.0043 8.93143 52.9311 8.78505C52.8425 8.65793 52.7346 8.55007 52.6075 8.46147C52.4804 8.37673 52.3456 8.30739 52.2031 8.25346C52.0567 8.21109 51.9026 8.21109 51.7601 8.25346C51.606 8.29198 51.4557 8.34976 51.3132 8.4191C51.1784 8.49614 51.0667 8.60785 50.9897 8.74267C50.9088 8.87364 50.8394 9.01617 50.7893 9.16255L50.7778 9.67103L50.7855 9.66332Z" fill="#999999"/>
<path fill-rule="evenodd" clip-rule="evenodd" d="M9.98313 8.36518L27.2289 2.93374L44.8368 8.49229C44.9831 8.52696 45.1334 8.54237 45.2797 8.53467C45.4377 8.53467 45.5879 8.48844 45.7227 8.40755C45.8614 8.33436 45.9885 8.23421 46.0887 8.11479C46.1965 7.99923 46.2659 7.85285 46.2928 7.69491C46.3237 7.54468 46.3391 7.3906 46.3314 7.23652C46.3314 7.07473 46.289 6.91679 46.2119 6.77427C46.1388 6.63559 46.0463 6.50847 45.9307 6.40061C45.819 6.29276 45.6804 6.21957 45.5263 6.1926L27.5486 0.510784C27.3291 0.422186 27.0825 0.422186 26.8629 0.510784L9.29361 6.06934C9.14723 6.11171 9.00856 6.1849 8.88914 6.27735C8.76202 6.37365 8.66572 6.50462 8.60794 6.651C8.52705 6.78968 8.48467 6.95146 8.48467 7.11325C8.47697 7.26733 8.48853 7.42142 8.52705 7.57165C8.56942 7.72188 8.63491 7.86441 8.72736 7.99152C8.82366 8.11864 8.95078 8.2188 9.0933 8.28813C9.22813 8.36903 9.38221 8.4114 9.53629 8.4114C9.68652 8.41525 9.83675 8.4037 9.98313 8.36903V8.36518Z" fill="#999999"/>
<path fill-rule="evenodd" clip-rule="evenodd" d="M1.47421 10.0385L26.1699 59.819C26.2469 60.0154 26.3895 60.1811 26.5705 60.2812C26.948 60.5008 27.4103 60.5008 27.7878 60.2812C27.9765 60.1695 28.1306 60.0116 28.2308 59.819L43.2924 30.7281L43.3348 30.6857L52.965 9.99616C53.0305 9.84978 53.069 9.6957 53.0882 9.53776C53.0998 9.37983 53.0728 9.22189 53.0073 9.07936C52.965 8.92143 52.8802 8.77505 52.7647 8.65949C52.6722 8.53237 52.5451 8.42836 52.4026 8.36673C52.2677 8.28198 52.1137 8.23961 51.9596 8.23961C51.8093 8.23191 51.6591 8.24731 51.5166 8.28583C51.3586 8.32436 51.2161 8.41295 51.1083 8.53237C50.985 8.63252 50.8887 8.76349 50.8271 8.90987L41.193 29.5994L27.1868 56.6834L3.53892 8.90987C3.45803 8.77505 3.36173 8.64793 3.25772 8.53237C3.13831 8.42451 3.00348 8.33976 2.85325 8.28583C2.71843 8.20879 2.55664 8.18953 2.40641 8.23961C2.24848 8.24346 2.09824 8.28583 1.96342 8.36673C1.83245 8.45147 1.70918 8.54778 1.60133 8.65949C1.50888 8.7866 1.44339 8.92913 1.39717 9.07936C1.34324 9.22574 1.32783 9.38368 1.35479 9.53776C1.35479 9.7111 1.39717 9.88445 1.47806 10.0385H1.47421Z" fill="#999999"/>
<path fill-rule="evenodd" clip-rule="evenodd" d="M13.2985 32.1946H40.7908C40.9411 32.1869 41.0913 32.1599 41.2338 32.1098C41.3763 32.0597 41.4996 31.975 41.5959 31.8594C41.7038 31.7554 41.7885 31.6245 41.8386 31.4819C41.9464 31.1853 41.9464 30.8579 41.8386 30.5613C41.7808 30.4226 41.6999 30.2955 41.5959 30.1838C41.4958 30.0721 41.3725 29.9873 41.2338 29.9334C41.0913 29.8833 40.9411 29.8525 40.7908 29.8486H13.2985C13.1483 29.8563 12.9942 29.8833 12.8517 29.9334C12.7092 29.9835 12.5859 30.0682 12.4896 30.1838C12.3817 30.2878 12.297 30.4188 12.2469 30.5613C12.1391 30.8579 12.1391 31.1853 12.2469 31.4819C12.2931 31.6283 12.3779 31.7554 12.4896 31.8594C12.5897 31.9711 12.713 32.0559 12.8517 32.1098C12.9942 32.1599 13.1444 32.1907 13.2985 32.1946ZM89.9665 21.8671H72.0736C71.9233 21.8748 71.7693 21.9018 71.6267 21.9519C71.4842 22.002 71.3609 22.0906 71.2646 22.2023C71.1606 22.3101 71.0797 22.4372 71.0219 22.5798C70.9757 22.73 70.9488 22.8841 70.9411 23.0382V37.8764C70.9488 38.0343 70.9757 38.1884 71.0219 38.3348C71.0682 38.4812 71.1491 38.6083 71.2646 38.7123C71.3686 38.8163 71.4919 38.901 71.6267 38.9627C71.7693 39.0127 71.9195 39.0436 72.0736 39.0474H89.9665V41.5551H72.0736C71.8424 41.5474 71.6113 41.5204 71.384 41.4665C71.1491 41.4164 70.9179 41.3471 70.6945 41.2585C70.475 41.1853 70.2708 41.0775 70.0897 40.9349C69.901 40.7963 69.7277 40.6422 69.562 40.4765C69.2269 40.1453 68.9649 39.7485 68.7916 39.3094C68.6991 39.0782 68.6298 38.8433 68.5874 38.5967C68.5412 38.3617 68.5142 38.1229 68.5065 37.8841V23.0882C68.5104 22.8494 68.5374 22.6106 68.5874 22.3756C68.6337 22.1329 68.703 21.8941 68.7916 21.663C68.8648 21.4318 68.9726 21.2161 69.1152 21.0197C69.2384 20.8194 69.3887 20.6383 69.5582 20.4765C69.7238 20.3109 69.901 20.1607 70.0859 20.0181C70.2747 19.8872 70.475 19.7793 70.6907 19.6946C70.9102 19.6021 71.1414 19.5289 71.3802 19.4865C71.6075 19.4365 71.8386 19.4095 72.0697 19.4018H89.9626V21.8671V21.8556L89.9665 21.8671ZM123.526 19.3633V21.871H106.319V29.2285H120.151V31.7785H106.319V39.136H123.526V41.6437H103.903V19.3633H123.526Z" fill="#999999"/>
<path d="M158.985 23.1236V29.6451C158.981 29.884 158.954 30.1228 158.904 30.3578C158.854 30.6005 158.785 30.8393 158.7 31.0704C158.627 31.3015 158.519 31.5172 158.376 31.7137C158.241 31.9025 158.091 32.0835 157.933 32.253C157.768 32.4186 157.59 32.5727 157.405 32.7152C157.213 32.8385 157.009 32.9464 156.797 33.0388C156.577 33.1351 156.346 33.2045 156.107 33.2507C155.88 33.2969 155.649 33.3239 155.418 33.3316H152.14L158.896 41.6097H155.68L148.962 33.3316H141.092C140.699 33.3316 140.302 33.2892 139.917 33.2045V41.6058H137.49V19.4102H155.426C155.657 19.4102 155.888 19.441 156.115 19.4949C156.35 19.545 156.581 19.6143 156.805 19.6991C157.02 19.7877 157.224 19.8994 157.413 20.038C157.791 20.3154 158.118 20.6505 158.38 21.0396C158.503 21.2437 158.611 21.4595 158.704 21.6829C158.796 21.9102 158.865 22.149 158.908 22.3955C158.954 22.6382 158.985 22.8809 158.996 23.1274L158.985 23.1236ZM141.053 30.8123H155.422C155.572 30.8046 155.726 30.7776 155.869 30.7276C156.019 30.6929 156.15 30.6043 156.231 30.4772C156.338 30.3732 156.423 30.2422 156.473 30.0997C156.523 29.9533 156.554 29.7954 156.558 29.6413V23.1197C156.566 22.8077 156.45 22.5111 156.234 22.2838C156.038 22.0373 155.738 21.8986 155.426 21.9063H141.053C140.899 21.9102 140.749 21.9371 140.607 21.9911C140.464 22.0411 140.341 22.1259 140.244 22.2414C140.14 22.3493 140.06 22.4764 140.002 22.6189C139.956 22.7692 139.925 22.9233 139.917 23.0773V29.5989C139.909 29.9186 140.04 30.2268 140.283 30.4348C140.456 30.6852 140.749 30.8277 141.053 30.8123Z" fill="#999999"/>
<path fill-rule="evenodd" clip-rule="evenodd" d="M171.865 19.3633H193.36V21.871H183.849V41.6013H181.422V21.871H171.869V19.3633H171.865ZM206.434 41.5975V19.3633H208.864V41.5975H206.434ZM241.176 19.3633H244.292L235.297 30.4804L244.327 41.5975H241.168L233.156 31.7362H226.233V41.5975H223.803V19.3633H226.272V29.2246H233.194L241.176 19.3633Z" fill="#999999"/>
</g>
<defs>
<clipPath id="clip0_3813_509">
<rect width="243.659" height="60" fill="white" transform="translate(0.67041 0.446289)"/>
</clipPath>
</defs>
</svg>
