<svg width="244" height="60" viewBox="0 0 244 60" fill="none" xmlns="http://www.w3.org/2000/svg">
<g clipPath="url(#clip0_3801_25675)">
<path fill-rule="evenodd" clip-rule="evenodd" d="M50.2874 9.21703L50.611 11.1469C50.8614 12.9189 50.9693 14.7062 50.9346 16.4975C50.9423 20.4536 50.48 24.3942 49.5594 28.2425C48.3344 33.4582 46.185 38.4119 43.2112 42.8688C39.7674 47.969 34.829 52.942 27.6218 56.9982L26.7358 57.499L25.846 56.9982C18.6388 52.9882 13.6619 47.969 10.2605 42.8688C7.27511 38.4158 5.1218 33.4582 3.90454 28.2386C2.98004 24.3904 2.51779 20.4458 2.52935 16.4898C2.51394 14.7024 2.6218 12.915 2.85292 11.1392L3.13412 9.20933C3.1765 9.0591 3.1765 8.90116 3.13412 8.75093C3.10716 8.59299 3.03782 8.45047 2.92996 8.33105C2.84522 8.20393 2.73351 8.09608 2.60639 8.00748C2.47927 7.93429 2.34445 7.88036 2.20577 7.84184C2.05939 7.79561 1.90531 7.79561 1.75893 7.84184C1.60485 7.86495 1.46232 7.93814 1.35446 8.046C1.22734 8.13074 1.11949 8.24246 1.03089 8.36957C0.953847 8.5121 0.896066 8.67004 0.865249 8.82797L0.541675 10.7579C0.291289 12.6608 0.171875 14.5753 0.171875 16.4898C0.171875 20.6423 0.661089 24.7833 1.63181 28.8203C2.27511 31.5707 3.16879 34.2594 4.30131 36.848C5.42611 39.4328 6.77819 41.9058 8.34984 44.2479C11.9515 49.6408 17.2135 54.9066 24.7559 59.0861L26.1734 59.8757C26.3506 59.9605 26.5432 60.0029 26.7397 60.0029C26.9361 60.0029 27.1287 59.9605 27.3059 59.8757L28.7235 59.0861C36.2505 54.9027 41.5124 49.5945 45.1295 44.2479C48.2767 39.5522 50.5532 34.3249 51.8475 28.8241C52.8106 24.7833 53.2882 20.6462 53.2805 16.4936C53.2805 14.5637 53.1572 12.6377 52.9184 10.727L52.5948 8.79715C52.5602 8.63922 52.5062 8.48514 52.433 8.33876C52.3445 8.21164 52.2366 8.10378 52.1095 8.01518C51.9824 7.93044 51.8475 7.8611 51.705 7.80717C51.5586 7.7648 51.4045 7.7648 51.262 7.80717C51.1079 7.84569 50.9577 7.90347 50.8152 7.97281C50.6804 8.04985 50.5686 8.16156 50.4916 8.29638C50.4107 8.42736 50.3414 8.56988 50.2913 8.71626L50.2797 9.22474L50.2874 9.21703Z" fill="white"/>
<path fill-rule="evenodd" clip-rule="evenodd" d="M9.48509 7.91889L26.7309 2.48745L44.3387 8.04601C44.4851 8.08067 44.6353 8.09608 44.7817 8.08838C44.9396 8.08838 45.0899 8.04215 45.2247 7.96126C45.3634 7.88807 45.4905 7.78792 45.5906 7.6685C45.6985 7.55294 45.7678 7.40656 45.7948 7.24862C45.8256 7.09839 45.841 6.94431 45.8333 6.79023C45.8333 6.62844 45.7909 6.4705 45.7139 6.32798C45.6407 6.1893 45.5483 6.06218 45.4327 5.95433C45.321 5.84647 45.1823 5.77328 45.0282 5.74631L27.0506 0.0644953C26.831 -0.0241026 26.5845 -0.0241026 26.3649 0.0644953L8.79556 5.62305C8.64919 5.66542 8.51051 5.73861 8.3911 5.83106C8.26398 5.92736 8.16768 6.05833 8.10989 6.20471C8.029 6.34339 7.98663 6.50517 7.98663 6.66696C7.97892 6.82104 7.99048 6.97513 8.029 7.12536C8.07137 7.27559 8.13686 7.41812 8.22931 7.54524C8.32561 7.67235 8.45273 7.77251 8.59526 7.84185C8.73008 7.92274 8.88416 7.96511 9.03825 7.96511C9.18848 7.96896 9.33871 7.95741 9.48509 7.92274V7.91889Z" fill="white"/>
<path fill-rule="evenodd" clip-rule="evenodd" d="M0.976161 9.59224L25.6718 59.3727C25.7489 59.5691 25.8914 59.7348 26.0725 59.8349C26.45 60.0545 26.9122 60.0545 27.2897 59.8349C27.4785 59.7232 27.6326 59.5653 27.7327 59.3727L42.7943 30.2818L42.8367 30.2394L52.4669 9.54987C52.5324 9.40349 52.5709 9.24941 52.5902 9.09147C52.6017 8.93354 52.5748 8.7756 52.5093 8.63307C52.4669 8.47514 52.3822 8.32876 52.2666 8.2132C52.1742 8.08608 52.047 7.98207 51.9045 7.92044C51.7697 7.83569 51.6156 7.79332 51.4615 7.79332C51.3113 7.78562 51.1611 7.80102 51.0185 7.83955C50.8606 7.87807 50.7181 7.96666 50.6102 8.08608C50.4869 8.18623 50.3906 8.3172 50.329 8.46358L40.695 29.1531L26.6888 56.2371L3.04088 8.46358C2.95998 8.32876 2.86368 8.20164 2.75967 8.08608C2.64026 7.97822 2.50544 7.89347 2.35521 7.83955C2.22038 7.7625 2.0586 7.74324 1.90836 7.79332C1.75043 7.79717 1.6002 7.83955 1.46537 7.92044C1.3344 8.00518 1.21114 8.10149 1.10328 8.2132C1.01083 8.34032 0.945344 8.48284 0.899119 8.63307C0.84519 8.77945 0.829782 8.93739 0.856746 9.09147C0.856746 9.26482 0.899119 9.43816 0.980013 9.59224H0.976161Z" fill="white"/>
<path fill-rule="evenodd" clip-rule="evenodd" d="M12.8005 31.7483H40.2928C40.443 31.7406 40.5932 31.7136 40.7358 31.6635C40.8783 31.6134 41.0016 31.5287 41.0979 31.4131C41.2057 31.3091 41.2905 31.1782 41.3405 31.0356C41.4484 30.739 41.4484 30.4116 41.3405 30.115C41.2828 29.9763 41.2019 29.8492 41.0979 29.7375C40.9977 29.6258 40.8744 29.541 40.7358 29.4871C40.5932 29.437 40.443 29.4062 40.2928 29.4024H12.8005C12.6502 29.4101 12.4962 29.437 12.3536 29.4871C12.2111 29.5372 12.0878 29.6219 11.9915 29.7375C11.8837 29.8415 11.7989 29.9725 11.7489 30.115C11.641 30.4116 11.641 30.739 11.7489 31.0356C11.7951 31.182 11.8798 31.3091 11.9915 31.4131C12.0917 31.5249 12.215 31.6096 12.3536 31.6635C12.4962 31.7136 12.6464 31.7444 12.8005 31.7483ZM89.4684 21.4208H71.5755C71.4253 21.4285 71.2712 21.4555 71.1287 21.5056C70.9862 21.5557 70.8629 21.6443 70.7666 21.756C70.6626 21.8638 70.5817 21.991 70.5239 22.1335C70.4777 22.2837 70.4507 22.4378 70.443 22.5919V37.4301C70.4507 37.588 70.4777 37.7421 70.5239 37.8885C70.5701 38.0349 70.651 38.162 70.7666 38.266C70.8706 38.37 70.9939 38.4547 71.1287 38.5164C71.2712 38.5665 71.4214 38.5973 71.5755 38.6011H89.4684V41.1088H71.5755C71.3444 41.1011 71.1133 41.0742 70.886 41.0202C70.651 40.9701 70.4199 40.9008 70.1965 40.8122C69.9769 40.739 69.7727 40.6312 69.5917 40.4886C69.4029 40.35 69.2296 40.1959 69.064 40.0302C68.7288 39.699 68.4669 39.3022 68.2936 38.8631C68.2011 38.6319 68.1318 38.397 68.0894 38.1504C68.0432 37.9155 68.0162 37.6766 68.0085 37.4378V22.642C68.0123 22.4031 68.0393 22.1643 68.0894 21.9293C68.1356 21.6866 68.205 21.4478 68.2936 21.2167C68.3667 20.9856 68.4746 20.7698 68.6171 20.5734C68.7404 20.3731 68.8906 20.192 69.0601 20.0302C69.2257 19.8646 69.403 19.7144 69.5878 19.5718C69.7766 19.4409 69.9769 19.333 70.1926 19.2483C70.4122 19.1558 70.6433 19.0826 70.8821 19.0403C71.1094 18.9902 71.3405 18.9632 71.5717 18.9555H89.4646V21.4208V21.4093L89.4684 21.4208ZM123.028 18.917V21.4247H105.821V28.7822H119.653V31.3322H105.821V38.6897H123.028V41.1974H103.405V18.917H123.028Z" fill="white"/>
<path d="M158.487 22.6773V29.1988C158.483 29.4377 158.456 29.6765 158.406 29.9115C158.356 30.1542 158.286 30.393 158.202 30.6241C158.129 30.8552 158.021 31.071 157.878 31.2674C157.743 31.4562 157.593 31.6372 157.435 31.8067C157.27 31.9723 157.092 32.1264 156.907 32.269C156.715 32.3922 156.511 32.5001 156.299 32.5925C156.079 32.6888 155.848 32.7582 155.609 32.8044C155.382 32.8506 155.151 32.8776 154.92 32.8853H151.642L158.398 41.1634H155.182L148.464 32.8853H140.594C140.201 32.8853 139.804 32.8429 139.419 32.7582V41.1596H136.992V18.9639H154.927C155.159 18.9639 155.39 18.9947 155.617 19.0486C155.852 19.0987 156.083 19.168 156.307 19.2528C156.522 19.3414 156.726 19.4531 156.915 19.5918C157.293 19.8691 157.62 20.2042 157.882 20.5933C158.005 20.7975 158.113 21.0132 158.206 21.2366C158.298 21.4639 158.367 21.7027 158.41 21.9492C158.456 22.1919 158.487 22.4346 158.498 22.6811L158.487 22.6773ZM140.555 30.366H154.924C155.074 30.3583 155.228 30.3314 155.37 30.2813C155.521 30.2466 155.652 30.158 155.733 30.0309C155.84 29.9269 155.925 29.7959 155.975 29.6534C156.025 29.507 156.056 29.3491 156.06 29.195V22.6734C156.068 22.3614 155.952 22.0648 155.736 21.8375C155.54 21.591 155.239 21.4523 154.927 21.46H140.555C140.401 21.4639 140.251 21.4908 140.109 21.5448C139.966 21.5948 139.843 21.6796 139.746 21.7951C139.642 21.903 139.562 22.0301 139.504 22.1727C139.458 22.3229 139.427 22.477 139.419 22.631V29.1526C139.411 29.4723 139.542 29.7805 139.785 29.9885C139.958 30.2389 140.251 30.3814 140.555 30.366Z" fill="white"/>
<path fill-rule="evenodd" clip-rule="evenodd" d="M171.367 18.917H192.862V21.4247H183.351V41.1551H180.924V21.4247H171.371V18.917H171.367ZM205.936 41.1512V18.917H208.366V41.1512H205.936ZM240.678 18.917H243.794L234.799 30.0341L243.829 41.1512H240.67L232.658 31.2899H225.735V41.1512H223.305V18.917H225.774V28.7783H232.696L240.678 18.917Z" fill="white"/>
</g>
<defs>
<clipPath id="clip0_3801_25675">
<rect width="243.659" height="60" fill="white" transform="translate(0.171875)"/>
</clipPath>
</defs>
</svg>
