<svg width="162" height="162" viewBox="0 0 162 162" fill="none" xmlns="http://www.w3.org/2000/svg">
<circle cx="80.9995" cy="81.4399" r="79.7055" fill="#0F1212" stroke="#FF1D00" stroke-width="1.5"/>
<path fill-rule="evenodd" clip-rule="evenodd" d="M67.8066 100.662C71.9126 103.037 76.6031 104.293 81.3732 104.293L81.3707 104.288C96.33 104.288 108.499 92.1165 108.499 77.1596C108.499 67.5075 103.304 58.5046 94.9398 53.6649C94.047 53.1501 92.9079 53.4535 92.3906 54.3463C91.8758 55.2392 92.1792 56.3807 93.0721 56.8955C100.289 61.0712 104.771 68.8356 104.771 77.1621C104.771 90.0647 94.2733 100.56 81.3732 100.56C77.2597 100.56 73.2133 99.478 69.6743 97.4312C68.784 96.9164 67.6424 97.2198 67.1251 98.1126C66.6103 99.0055 66.9162 100.145 67.8066 100.662ZM81.3731 118.449C58.6096 118.449 40.0889 99.9286 40.0889 77.165C40.0889 76.1354 40.9245 75.2997 41.9541 75.2997C42.9837 75.2997 43.8194 76.1354 43.8194 77.165C43.8194 97.8718 60.6663 114.719 81.3731 114.719C102.08 114.719 118.927 97.8718 118.927 77.165C118.927 76.1354 119.763 75.2997 120.792 75.2997C121.822 75.2997 122.657 76.1354 122.657 77.165C122.657 99.9286 104.137 118.449 81.3731 118.449ZM81.372 111.371C75.3563 111.371 69.4402 109.787 64.2626 106.79C59.2413 103.883 55.0085 99.7172 52.0216 94.7407C51.4918 93.8578 51.7778 92.7113 52.6607 92.1815C53.5436 91.6518 54.6901 91.9378 55.2199 92.8207C57.881 97.2575 61.6537 100.971 66.1303 103.562C70.7413 106.231 76.0112 107.641 81.3707 107.641C98.1754 107.641 111.846 93.9697 111.846 77.165C111.846 76.1354 112.682 75.2997 113.712 75.2997C114.741 75.2997 115.577 76.1354 115.577 77.165C115.577 96.026 100.233 111.371 81.372 111.371ZM81.373 97.2128C80.3434 97.2128 79.5078 96.3771 79.5078 95.3475C79.5078 94.3179 80.3434 93.4823 81.373 93.4823C90.371 93.4823 97.6902 86.163 97.6902 77.165C97.6902 76.1354 98.5259 75.2998 99.5555 75.2998C100.585 75.2998 101.421 76.1354 101.421 77.165C101.421 88.2198 92.4277 97.2128 81.373 97.2128ZM85.313 87.7174C85.6587 88.3167 86.2854 88.65 86.9296 88.65C87.2479 88.65 87.5687 88.5679 87.8622 88.3988C91.8613 86.0834 94.3458 81.7809 94.3458 77.165C94.3458 76.1354 93.5102 75.2998 92.4806 75.2998C91.4509 75.2998 90.6153 76.1354 90.6153 77.165C90.6153 80.4528 88.8446 83.5193 85.9945 85.1682C85.1016 85.6855 84.7957 86.827 85.313 87.7174Z" fill="#FF1D00"/>
</svg>
