<svg width="576" height="577" viewBox="0 0 576 577" fill="none" xmlns="http://www.w3.org/2000/svg">
<g filter="url(#filter0_f_3588_26359)">
<circle cx="288" cy="288.271" r="240" fill="#0F1212"/>
</g>
<circle opacity="0.142857" cx="287.999" cy="288.272" r="228.833" stroke="#FF1D00"/>
<circle opacity="0.285714" cx="288.002" cy="288.271" r="218.167" stroke="#FF1D00"/>
<circle opacity="0.428571" cx="287.999" cy="288.272" r="207.5" stroke="#FF1D00"/>
<circle opacity="0.571429" cx="288.001" cy="288.272" r="196.833" stroke="#FF1D00"/>
<circle opacity="0.714286" cx="287.999" cy="288.271" r="186.167" stroke="#FF1D00"/>
<circle opacity="0.857143" cx="288.001" cy="288.271" r="175.5" stroke="#FF1D00"/>
<circle cx="287.998" cy="288.271" r="164.833" stroke="#FF1D00"/>
<circle cx="287.999" cy="287.272" r="151.292" fill="#0F1212" stroke="#FF1D00" stroke-width="1.5"/>
<path fill-rule="evenodd" clip-rule="evenodd" d="M269.095 316.509C275.051 319.954 281.855 321.776 288.775 321.776L288.771 321.769C310.471 321.769 328.124 304.113 328.124 282.416C328.124 268.415 320.587 255.355 308.455 248.335C307.159 247.588 305.507 248.028 304.757 249.323C304.01 250.619 304.45 252.274 305.745 253.021C316.215 259.079 322.716 270.342 322.716 282.42C322.716 301.137 307.488 316.361 288.775 316.361C282.808 316.361 276.938 314.792 271.804 311.822C270.513 311.076 268.857 311.516 268.107 312.811C267.36 314.106 267.804 315.758 269.095 316.509ZM288.775 342.311C255.754 342.311 228.888 315.445 228.888 282.424C228.888 280.931 230.1 279.719 231.593 279.719C233.087 279.719 234.299 280.931 234.299 282.424C234.299 312.462 258.737 336.9 288.775 336.9C318.812 336.9 343.25 312.462 343.25 282.424C343.25 280.931 344.463 279.719 345.956 279.719C347.45 279.719 348.662 280.931 348.662 282.424C348.662 315.445 321.796 342.311 288.775 342.311ZM288.773 332.044C280.047 332.044 271.465 329.746 263.954 325.399C256.67 321.181 250.53 315.138 246.197 307.92C245.429 306.639 245.844 304.976 247.124 304.207C248.405 303.439 250.068 303.854 250.837 305.134C254.697 311.571 260.17 316.957 266.664 320.716C273.352 324.587 280.997 326.632 288.771 326.632C313.148 326.632 332.979 306.801 332.979 282.424C332.979 280.931 334.192 279.719 335.685 279.719C337.179 279.719 338.391 280.931 338.391 282.424C338.391 309.784 316.133 332.043 288.773 332.044ZM288.775 311.506C287.281 311.506 286.069 310.293 286.069 308.8C286.069 307.306 287.281 306.094 288.775 306.094C301.827 306.094 312.444 295.477 312.444 282.424C312.444 280.931 313.657 279.719 315.15 279.719C316.644 279.719 317.856 280.931 317.856 282.424C317.856 298.46 304.811 311.506 288.775 311.506ZM294.49 297.732C294.991 298.601 295.901 299.084 296.835 299.084C297.297 299.084 297.762 298.965 298.188 298.72C303.989 295.361 307.593 289.12 307.593 282.424C307.593 280.931 306.381 279.719 304.887 279.719C303.394 279.719 302.182 280.931 302.182 282.424C302.182 287.194 299.613 291.642 295.478 294.034C294.183 294.784 293.74 296.44 294.49 297.732Z" fill="#FF1D00"/>
<defs>
<filter id="filter0_f_3588_26359" x="0" y="0.271484" width="576" height="576" filterUnits="userSpaceOnUse" color-interpolation-filters="sRGB">
<feFlood flood-opacity="0" result="BackgroundImageFix"/>
<feBlend mode="normal" in="SourceGraphic" in2="BackgroundImageFix" result="shape"/>
<feGaussianBlur stdDeviation="24" result="effect1_foregroundBlur_3588_26359"/>
</filter>
</defs>
</svg>
