<svg width="500" height="394" viewBox="0 0 500 394" fill="none" xmlns="http://www.w3.org/2000/svg">
<path fill-rule="evenodd" clip-rule="evenodd" d="M168.148 285.42C192.91 299.743 221.195 307.317 249.96 307.317L249.945 307.287C340.156 307.287 413.539 233.889 413.539 143.693C413.539 85.4876 382.209 31.1963 331.772 2.01104C326.388 -1.09346 319.519 0.736241 316.4 6.12037C313.295 11.5045 315.125 18.3884 320.509 21.4929C364.032 46.6738 391.058 93.4963 391.058 143.708C391.058 221.516 327.753 284.806 249.96 284.806C225.154 284.806 200.753 278.282 179.412 265.939C174.043 262.834 167.159 264.664 164.039 270.048C160.935 275.432 162.779 282.301 168.148 285.42ZM249.96 392.686C112.687 392.686 1 280.999 1 143.726C1 137.517 6.03919 132.478 12.2482 132.478C18.4572 132.478 23.4964 137.517 23.4964 143.726C23.4964 268.596 125.09 370.189 249.96 370.189C374.83 370.189 476.423 268.596 476.423 143.726C476.423 137.517 481.463 132.478 487.672 132.478C493.881 132.478 498.92 137.517 498.92 143.726C498.92 280.999 387.233 392.686 249.96 392.686ZM249.953 350.003C213.676 350.001 178 340.448 146.777 322.377C116.497 304.845 90.971 279.724 72.9589 249.714C69.7644 244.39 71.4891 237.476 76.8133 234.281C82.1374 231.087 89.0513 232.811 92.2458 238.136C108.293 264.891 131.045 287.283 158.04 302.91C185.846 319.003 217.626 327.506 249.945 327.506C351.284 327.506 433.726 245.064 433.726 143.726C433.726 137.517 438.765 132.478 444.974 132.478C451.183 132.478 456.222 137.517 456.222 143.726C456.222 257.465 363.691 349.998 249.953 350.003ZM249.959 264.621C243.75 264.621 238.711 259.582 238.711 253.373C238.711 247.164 243.75 242.125 249.959 242.125C304.22 242.125 348.358 197.987 348.358 143.726C348.358 137.517 353.397 132.478 359.606 132.478C365.815 132.478 370.855 137.517 370.855 143.726C370.855 210.39 316.623 264.621 249.959 264.621ZM273.719 207.361C275.804 210.975 279.583 212.985 283.467 212.985C285.387 212.985 287.322 212.49 289.091 211.47C313.208 197.507 328.19 171.561 328.19 143.726C328.19 137.517 323.151 132.478 316.942 132.478C310.733 132.478 305.694 137.517 305.694 143.726C305.694 163.553 295.015 182.045 277.828 191.988C272.444 195.108 270.599 201.991 273.719 207.361Z" fill="#FF1D00"/>
</svg>
