<svg width="65" height="893" viewBox="0 0 65 893" fill="none" xmlns="http://www.w3.org/2000/svg">
<path d="M27.4688 38.1172C26.8281 38.1172 26.2812 37.9414 25.8281 37.5898C25.375 37.2383 25.0293 36.7305 24.791 36.0664C24.5527 35.3984 24.4336 34.5898 24.4336 33.6406C24.4336 32.6953 24.5527 31.8887 24.791 31.2207C25.0332 30.5488 25.3809 30.0371 25.834 29.6855C26.2871 29.3301 26.832 29.1523 27.4688 29.1523C28.1055 29.1523 28.6504 29.3301 29.1035 29.6855C29.5566 30.0371 29.9023 30.5488 30.1406 31.2207C30.3828 31.8887 30.5039 32.6953 30.5039 33.6406C30.5039 34.5898 30.3848 35.3984 30.1465 36.0664C29.9082 36.7305 29.5625 37.2383 29.1094 37.5898C28.6602 37.9414 28.1133 38.1172 27.4688 38.1172ZM27.4688 37.1914C27.9023 37.1914 28.2695 37.0527 28.5703 36.7754C28.8711 36.4941 29.0996 36.0879 29.2559 35.5566C29.416 35.0254 29.4961 34.3867 29.4961 33.6406C29.4961 32.8906 29.416 32.25 29.2559 31.7188C29.0996 31.1875 28.8711 30.7812 28.5703 30.5C28.2695 30.2188 27.9023 30.0781 27.4688 30.0781C26.8203 30.0781 26.3203 30.3906 25.9688 31.0156C25.6172 31.6406 25.4414 32.5156 25.4414 33.6406C25.4414 34.3867 25.5195 35.0254 25.6758 35.5566C25.8359 36.0879 26.0664 36.4941 26.3672 36.7754C26.6719 37.0527 27.0391 37.1914 27.4688 37.1914ZM36.8297 29.2695V38H35.7984V30.3828H35.7398L33.6187 31.8008V30.7227L35.7984 29.2695H36.8297Z" fill="#595959"/>
<path d="M27.4688 203.117C26.8281 203.117 26.2812 202.941 25.8281 202.59C25.375 202.238 25.0293 201.73 24.791 201.066C24.5527 200.398 24.4336 199.59 24.4336 198.641C24.4336 197.695 24.5527 196.889 24.791 196.221C25.0332 195.549 25.3809 195.037 25.834 194.686C26.2871 194.33 26.832 194.152 27.4688 194.152C28.1055 194.152 28.6504 194.33 29.1035 194.686C29.5566 195.037 29.9023 195.549 30.1406 196.221C30.3828 196.889 30.5039 197.695 30.5039 198.641C30.5039 199.59 30.3848 200.398 30.1465 201.066C29.9082 201.73 29.5625 202.238 29.1094 202.59C28.6602 202.941 28.1133 203.117 27.4688 203.117ZM27.4688 202.191C27.9023 202.191 28.2695 202.053 28.5703 201.775C28.8711 201.494 29.0996 201.088 29.2559 200.557C29.416 200.025 29.4961 199.387 29.4961 198.641C29.4961 197.891 29.416 197.25 29.2559 196.719C29.0996 196.188 28.8711 195.781 28.5703 195.5C28.2695 195.219 27.9023 195.078 27.4688 195.078C26.8203 195.078 26.3203 195.391 25.9688 196.016C25.6172 196.641 25.4414 197.516 25.4414 198.641C25.4414 199.387 25.5195 200.025 25.6758 200.557C25.8359 201.088 26.0664 201.494 26.3672 201.775C26.6719 202.053 27.0391 202.191 27.4688 202.191ZM33.9586 203V202.238L36.8414 199.074C37.1773 198.707 37.4527 198.387 37.6676 198.113C37.8863 197.84 38.0484 197.582 38.1539 197.34C38.2633 197.098 38.318 196.844 38.318 196.578C38.318 196.27 38.2437 196.004 38.0953 195.781C37.9508 195.555 37.7535 195.381 37.5035 195.26C37.2535 195.139 36.9703 195.078 36.6539 195.078C36.318 195.078 36.025 195.146 35.775 195.283C35.5289 195.42 35.3375 195.613 35.2008 195.863C35.068 196.109 35.0016 196.398 35.0016 196.73H33.9937C33.9937 196.219 34.1109 195.77 34.3453 195.383C34.5836 194.996 34.9059 194.695 35.3121 194.48C35.7223 194.262 36.1812 194.152 36.6891 194.152C37.2008 194.152 37.6539 194.262 38.0484 194.48C38.443 194.695 38.7516 194.986 38.9742 195.354C39.2008 195.717 39.3141 196.125 39.3141 196.578C39.3141 196.898 39.2555 197.211 39.1383 197.516C39.025 197.816 38.8258 198.154 38.5406 198.529C38.2594 198.904 37.8687 199.359 37.3687 199.895L35.4117 201.992V202.062H39.4664V203H33.9586Z" fill="#595959"/>
<path d="M27.4688 368.117C26.8281 368.117 26.2812 367.941 25.8281 367.59C25.375 367.238 25.0293 366.73 24.791 366.066C24.5527 365.398 24.4336 364.59 24.4336 363.641C24.4336 362.695 24.5527 361.889 24.791 361.221C25.0332 360.549 25.3809 360.037 25.834 359.686C26.2871 359.33 26.832 359.152 27.4688 359.152C28.1055 359.152 28.6504 359.33 29.1035 359.686C29.5566 360.037 29.9023 360.549 30.1406 361.221C30.3828 361.889 30.5039 362.695 30.5039 363.641C30.5039 364.59 30.3848 365.398 30.1465 366.066C29.9082 366.73 29.5625 367.238 29.1094 367.59C28.6602 367.941 28.1133 368.117 27.4688 368.117ZM27.4688 367.191C27.9023 367.191 28.2695 367.053 28.5703 366.775C28.8711 366.494 29.0996 366.088 29.2559 365.557C29.416 365.025 29.4961 364.387 29.4961 363.641C29.4961 362.891 29.416 362.25 29.2559 361.719C29.0996 361.188 28.8711 360.781 28.5703 360.5C28.2695 360.219 27.9023 360.078 27.4688 360.078C26.8203 360.078 26.3203 360.391 25.9688 361.016C25.6172 361.641 25.4414 362.516 25.4414 363.641C25.4414 364.387 25.5195 365.025 25.6758 365.557C25.8359 366.088 26.0664 366.494 26.3672 366.775C26.6719 367.053 27.0391 367.191 27.4688 367.191ZM36.9117 368.117C36.3453 368.117 35.8434 368.021 35.4059 367.83C34.9684 367.639 34.6207 367.371 34.3629 367.027C34.1051 366.68 33.9664 366.277 33.9469 365.82H35.0133C35.0367 366.102 35.1324 366.344 35.3004 366.547C35.4723 366.75 35.6949 366.906 35.9684 367.016C36.2457 367.125 36.5523 367.18 36.8883 367.18C37.2633 367.18 37.5953 367.115 37.8844 366.986C38.1773 366.854 38.4059 366.672 38.5699 366.441C38.7379 366.207 38.8219 365.938 38.8219 365.633C38.8219 365.309 38.7418 365.023 38.5816 364.777C38.4215 364.531 38.1871 364.34 37.8785 364.203C37.5738 364.062 37.2008 363.992 36.7594 363.992H36.0562V363.055H36.7594C37.1031 363.055 37.4059 362.992 37.6676 362.867C37.9293 362.742 38.1344 362.566 38.2828 362.34C38.4312 362.113 38.5055 361.848 38.5055 361.543C38.5055 361.246 38.441 360.988 38.3121 360.77C38.1832 360.551 37.9996 360.381 37.7613 360.26C37.527 360.139 37.2477 360.078 36.9234 360.078C36.6227 360.078 36.3395 360.133 36.0738 360.242C35.8082 360.352 35.5914 360.508 35.4234 360.711C35.2555 360.914 35.1656 361.16 35.1539 361.449H34.1344C34.15 360.992 34.2867 360.592 34.5445 360.248C34.8023 359.904 35.1402 359.637 35.5582 359.445C35.9801 359.25 36.443 359.152 36.9469 359.152C37.4859 359.152 37.9488 359.262 38.3355 359.48C38.7223 359.695 39.0191 359.98 39.2262 360.336C39.4332 360.691 39.5367 361.074 39.5367 361.484C39.5367 361.98 39.4078 362.4 39.15 362.744C38.8961 363.088 38.5484 363.328 38.107 363.465V363.535C38.6539 363.625 39.0816 363.859 39.3902 364.238C39.6988 364.613 39.8531 365.078 39.8531 365.633C39.8531 366.105 39.7242 366.529 39.4664 366.904C39.2125 367.279 38.8629 367.576 38.4176 367.795C37.9762 368.01 37.4742 368.117 36.9117 368.117Z" fill="#595959"/>
<path d="M27.4688 533.117C26.8281 533.117 26.2812 532.941 25.8281 532.59C25.375 532.238 25.0293 531.73 24.791 531.066C24.5527 530.398 24.4336 529.59 24.4336 528.641C24.4336 527.695 24.5527 526.889 24.791 526.221C25.0332 525.549 25.3809 525.037 25.834 524.686C26.2871 524.33 26.832 524.152 27.4688 524.152C28.1055 524.152 28.6504 524.33 29.1035 524.686C29.5566 525.037 29.9023 525.549 30.1406 526.221C30.3828 526.889 30.5039 527.695 30.5039 528.641C30.5039 529.59 30.3848 530.398 30.1465 531.066C29.9082 531.73 29.5625 532.238 29.1094 532.59C28.6602 532.941 28.1133 533.117 27.4688 533.117ZM27.4688 532.191C27.9023 532.191 28.2695 532.053 28.5703 531.775C28.8711 531.494 29.0996 531.088 29.2559 530.557C29.416 530.025 29.4961 529.387 29.4961 528.641C29.4961 527.891 29.416 527.25 29.2559 526.719C29.0996 526.188 28.8711 525.781 28.5703 525.5C28.2695 525.219 27.9023 525.078 27.4688 525.078C26.8203 525.078 26.3203 525.391 25.9688 526.016C25.6172 526.641 25.4414 527.516 25.4414 528.641C25.4414 529.387 25.5195 530.025 25.6758 530.557C25.8359 531.088 26.0664 531.494 26.3672 531.775C26.6719 532.053 27.0391 532.191 27.4688 532.191ZM33.7594 531.207V530.34L37.5914 524.27H38.2242V525.617H37.7906L34.8961 530.199V530.27H40.0641V531.207H33.7594ZM37.8609 533V530.949V530.539V524.27H38.8687V533H37.8609Z" fill="#595959"/>
<path d="M27.4688 698.117C26.8281 698.117 26.2812 697.941 25.8281 697.59C25.375 697.238 25.0293 696.73 24.791 696.066C24.5527 695.398 24.4336 694.59 24.4336 693.641C24.4336 692.695 24.5527 691.889 24.791 691.221C25.0332 690.549 25.3809 690.037 25.834 689.686C26.2871 689.33 26.832 689.152 27.4688 689.152C28.1055 689.152 28.6504 689.33 29.1035 689.686C29.5566 690.037 29.9023 690.549 30.1406 691.221C30.3828 691.889 30.5039 692.695 30.5039 693.641C30.5039 694.59 30.3848 695.398 30.1465 696.066C29.9082 696.73 29.5625 697.238 29.1094 697.59C28.6602 697.941 28.1133 698.117 27.4688 698.117ZM27.4688 697.191C27.9023 697.191 28.2695 697.053 28.5703 696.775C28.8711 696.494 29.0996 696.088 29.2559 695.557C29.416 695.025 29.4961 694.387 29.4961 693.641C29.4961 692.891 29.416 692.25 29.2559 691.719C29.0996 691.188 28.8711 690.781 28.5703 690.5C28.2695 690.219 27.9023 690.078 27.4688 690.078C26.8203 690.078 26.3203 690.391 25.9688 691.016C25.6172 691.641 25.4414 692.516 25.4414 693.641C25.4414 694.387 25.5195 695.025 25.6758 695.557C25.8359 696.088 26.0664 696.494 26.3672 696.775C26.6719 697.053 27.0391 697.191 27.4688 697.191ZM36.6891 698.117C36.1891 698.117 35.7379 698.02 35.3355 697.824C34.9371 697.625 34.6168 697.352 34.3746 697.004C34.1324 696.656 34.0016 696.262 33.982 695.82H35.0016C35.0406 696.211 35.2184 696.535 35.5348 696.793C35.8551 697.051 36.2398 697.18 36.6891 697.18C37.0484 697.18 37.3668 697.096 37.6441 696.928C37.9215 696.76 38.1402 696.529 38.3004 696.236C38.4605 695.943 38.5406 695.609 38.5406 695.234C38.5406 694.855 38.4566 694.516 38.2887 694.215C38.1246 693.914 37.898 693.678 37.609 693.506C37.3199 693.33 36.9898 693.242 36.6187 693.242C36.3492 693.242 36.0738 693.285 35.7926 693.371C35.5152 693.453 35.2867 693.559 35.107 693.688L34.1109 693.57L34.6383 689.27H39.1734V690.207H35.5289L35.2242 692.785H35.2711C35.4508 692.641 35.6754 692.523 35.9449 692.434C36.2145 692.34 36.4977 692.293 36.7945 692.293C37.3297 692.293 37.8062 692.42 38.2242 692.674C38.6422 692.928 38.9703 693.275 39.2086 693.717C39.4508 694.154 39.5719 694.656 39.5719 695.223C39.5719 695.777 39.4469 696.273 39.1969 696.711C38.9469 697.148 38.6051 697.492 38.1715 697.742C37.7379 697.992 37.2437 698.117 36.6891 698.117Z" fill="#595959"/>
<path d="M27.4688 863.117C26.8281 863.117 26.2812 862.941 25.8281 862.59C25.375 862.238 25.0293 861.73 24.791 861.066C24.5527 860.398 24.4336 859.59 24.4336 858.641C24.4336 857.695 24.5527 856.889 24.791 856.221C25.0332 855.549 25.3809 855.037 25.834 854.686C26.2871 854.33 26.832 854.152 27.4688 854.152C28.1055 854.152 28.6504 854.33 29.1035 854.686C29.5566 855.037 29.9023 855.549 30.1406 856.221C30.3828 856.889 30.5039 857.695 30.5039 858.641C30.5039 859.59 30.3848 860.398 30.1465 861.066C29.9082 861.73 29.5625 862.238 29.1094 862.59C28.6602 862.941 28.1133 863.117 27.4688 863.117ZM27.4688 862.191C27.9023 862.191 28.2695 862.053 28.5703 861.775C28.8711 861.494 29.0996 861.088 29.2559 860.557C29.416 860.025 29.4961 859.387 29.4961 858.641C29.4961 857.891 29.416 857.25 29.2559 856.719C29.0996 856.187 28.8711 855.781 28.5703 855.5C28.2695 855.219 27.9023 855.078 27.4688 855.078C26.8203 855.078 26.3203 855.391 25.9688 856.016C25.6172 856.641 25.4414 857.516 25.4414 858.641C25.4414 859.387 25.5195 860.025 25.6758 860.557C25.8359 861.088 26.0664 861.494 26.3672 861.775C26.6719 862.053 27.0391 862.191 27.4688 862.191ZM36.8062 863.117C36.4508 863.117 36.0934 863.053 35.734 862.924C35.3746 862.791 35.0465 862.57 34.7496 862.262C34.4566 861.949 34.2203 861.525 34.0406 860.99C33.8609 860.455 33.7711 859.785 33.7711 858.98C33.7711 858.207 33.8434 857.521 33.9879 856.924C34.1363 856.326 34.3473 855.822 34.6207 855.412C34.898 854.998 35.232 854.686 35.6227 854.475C36.0133 854.26 36.4547 854.152 36.9469 854.152C37.4352 854.152 37.8687 854.25 38.2477 854.445C38.6305 854.641 38.943 854.912 39.1852 855.26C39.4273 855.604 39.5836 856 39.6539 856.449H38.6227C38.525 856.059 38.3355 855.734 38.0543 855.477C37.777 855.219 37.4078 855.09 36.9469 855.09C36.2711 855.09 35.7379 855.385 35.3473 855.975C34.9605 856.561 34.7672 857.387 34.7672 858.453H34.8375C34.9977 858.211 35.1871 858.004 35.4059 857.832C35.6246 857.656 35.8668 857.523 36.1324 857.434C36.398 857.34 36.6812 857.293 36.982 857.293C37.482 857.293 37.9391 857.418 38.3531 857.668C38.7672 857.914 39.0992 858.256 39.3492 858.693C39.5992 859.127 39.7242 859.625 39.7242 860.187C39.7242 860.727 39.6031 861.219 39.3609 861.664C39.1227 862.105 38.7848 862.459 38.3473 862.725C37.9098 862.986 37.3961 863.117 36.8062 863.117ZM36.8062 862.18C37.1656 862.18 37.4879 862.092 37.773 861.916C38.0582 861.736 38.2848 861.496 38.4527 861.195C38.6207 860.891 38.7047 860.555 38.7047 860.187C38.7047 859.824 38.6227 859.496 38.4586 859.203C38.2984 858.906 38.0777 858.67 37.7965 858.494C37.5191 858.318 37.2008 858.23 36.8414 858.23C36.482 858.23 36.1559 858.322 35.8629 858.506C35.5738 858.689 35.3434 858.932 35.1715 859.232C35.0035 859.529 34.9195 859.852 34.9195 860.199C34.9195 860.547 35.0016 860.873 35.1656 861.178C35.3297 861.479 35.5523 861.721 35.8336 861.904C36.1187 862.088 36.443 862.18 36.8062 862.18Z" fill="#595959"/>
</svg>
