<svg width="222" height="84" viewBox="0 0 222 84" fill="none" xmlns="http://www.w3.org/2000/svg">
<line x1="18.376" y1="46.1023" x2="18.376" y2="38.9555" stroke="#272A2A"/>
<rect x="16.4941" y="46.3281" width="3.04989" height="3.04989" transform="rotate(-45 16.4941 46.3281)" fill="#595959"/>
<rect x="16.4941" y="38.5857" width="3.04989" height="3.04989" transform="rotate(-45 16.4941 38.5857)" fill="#595959"/>
<line x1="30.6895" y1="46.1023" x2="30.6895" y2="38.9555" stroke="#272A2A"/>
<rect x="28.8076" y="46.3281" width="3.04989" height="3.04989" transform="rotate(-45 28.8076 46.3281)" fill="#595959"/>
<rect x="28.8076" y="38.5857" width="3.04989" height="3.04989" transform="rotate(-45 28.8076 38.5857)" fill="#595959"/>
<line x1="43.002" y1="53.5469" x2="43.002" y2="30.9154" stroke="#272A2A"/>
<rect x="41.1201" y="53.7727" width="3.04989" height="3.04989" transform="rotate(-45 41.1201 53.7727)" fill="#272A2A"/>
<rect x="41.1201" y="31.1411" width="3.04989" height="3.04989" transform="rotate(-45 41.1201 31.1411)" fill="#272A2A"/>
<line x1="55.3154" y1="53.5469" x2="55.3154" y2="30.9154" stroke="#272A2A"/>
<rect x="53.4336" y="53.7727" width="3.04989" height="3.04989" transform="rotate(-45 53.4336 53.7727)" fill="#272A2A"/>
<rect x="53.4336" y="31.1411" width="3.04989" height="3.04989" transform="rotate(-45 53.4336 31.1411)" fill="#272A2A"/>
<line x1="67.6289" y1="53.5469" x2="67.6289" y2="30.9154" stroke="#272A2A"/>
<rect x="65.7471" y="53.7727" width="3.04989" height="3.04989" transform="rotate(-45 65.7471 53.7727)" fill="#595959"/>
<rect x="65.7471" y="31.1411" width="3.04989" height="3.04989" transform="rotate(-45 65.7471 31.1411)" fill="#FF1D00"/>
<line x1="79.9424" y1="46.1023" x2="79.9424" y2="38.9555" stroke="#272A2A"/>
<rect x="78.0605" y="46.3281" width="3.04989" height="3.04989" transform="rotate(-45 78.0605 46.3281)" fill="#272A2A"/>
<rect x="78.0605" y="38.5857" width="3.04989" height="3.04989" transform="rotate(-45 78.0605 38.5857)" fill="#272A2A"/>
<line x1="92.2549" y1="46.1023" x2="92.2549" y2="38.9555" stroke="#272A2A"/>
<rect x="90.373" y="46.3281" width="3.04989" height="3.04989" transform="rotate(-45 90.373 46.3281)" fill="#272A2A"/>
<rect x="90.373" y="38.5857" width="3.04989" height="3.04989" transform="rotate(-45 90.373 38.5857)" fill="#272A2A"/>
<line x1="104.568" y1="46.1023" x2="104.568" y2="38.9555" stroke="#272A2A"/>
<rect x="102.687" y="46.3281" width="3.04989" height="3.04989" transform="rotate(-45 102.687 46.3281)" fill="#272A2A"/>
<rect x="102.687" y="38.5857" width="3.04989" height="3.04989" transform="rotate(-45 102.687 38.5857)" fill="#272A2A"/>
<line x1="116.882" y1="53.5469" x2="116.882" y2="30.9154" stroke="#272A2A"/>
<rect x="115" y="52.5815" width="3.04989" height="3.04989" transform="rotate(-45 115 52.5815)" fill="#595959"/>
<rect x="115" y="32.3323" width="3.04989" height="3.04989" transform="rotate(-45 115 32.3323)" fill="#595959"/>
<line x1="129.194" y1="53.5469" x2="129.194" y2="30.9154" stroke="#272A2A"/>
<rect x="127.312" y="53.7727" width="3.04989" height="3.04989" transform="rotate(-45 127.312 53.7727)" fill="#595959"/>
<rect x="127.312" y="31.1411" width="3.04989" height="3.04989" transform="rotate(-45 127.312 31.1411)" fill="#595959"/>
<line x1="141.508" y1="53.5469" x2="141.508" y2="30.9154" stroke="#272A2A"/>
<rect x="139.626" y="53.7727" width="3.04989" height="3.04989" transform="rotate(-45 139.626 53.7727)" fill="#272A2A"/>
<rect x="139.626" y="31.1411" width="3.04989" height="3.04989" transform="rotate(-45 139.626 31.1411)" fill="#272A2A"/>
<line x1="153.821" y1="53.5469" x2="153.821" y2="30.9154" stroke="#272A2A"/>
<rect x="151.939" y="52.5815" width="3.04989" height="3.04989" transform="rotate(-45 151.939 52.5815)" fill="#272A2A"/>
<rect x="151.939" y="32.3323" width="3.04989" height="3.04989" transform="rotate(-45 151.939 32.3323)" fill="#272A2A"/>
<line x1="166.135" y1="45.209" x2="166.135" y2="40.4445" stroke="#272A2A"/>
<rect x="164.253" y="45.4348" width="3.04989" height="3.04989" transform="rotate(-45 164.253 45.4348)" fill="#595959"/>
<rect x="164.253" y="39.479" width="3.04989" height="3.04989" transform="rotate(-45 164.253 39.479)" fill="#595959"/>
<line x1="178.447" y1="45.209" x2="178.447" y2="40.4445" stroke="#272A2A"/>
<rect x="176.565" y="45.4348" width="3.04989" height="3.04989" transform="rotate(-45 176.565 45.4348)" fill="#272A2A"/>
<rect x="176.565" y="39.479" width="3.04989" height="3.04989" transform="rotate(-45 176.565 39.479)" fill="#272A2A"/>
<line x1="190.761" y1="45.209" x2="190.761" y2="40.4445" stroke="#272A2A"/>
<rect x="188.879" y="45.4348" width="3.04989" height="3.04989" transform="rotate(-45 188.879 45.4348)" fill="#595959"/>
<rect x="188.879" y="39.479" width="3.04989" height="3.04989" transform="rotate(-45 188.879 39.479)" fill="#595959"/>
<line x1="203.074" y1="45.209" x2="203.074" y2="40.4445" stroke="#272A2A"/>
<rect x="201.192" y="45.4348" width="3.04989" height="3.04989" transform="rotate(-45 201.192 45.4348)" fill="#595959"/>
<rect x="201.192" y="39.479" width="3.04989" height="3.04989" transform="rotate(-45 201.192 39.479)" fill="#595959"/>
</svg>
