<?xml version="1.0" encoding="UTF-8"?><svg id="Layer_2" xmlns="http://www.w3.org/2000/svg" viewBox="0 0 800 185.69"><defs><style>.cls-1{letter-spacing:-.02em;}.cls-2{letter-spacing:-.04em;}.cls-3,.cls-4{fill:#fff;}.cls-5{letter-spacing:-.05em;}.cls-6{letter-spacing:-.05em;}.cls-7{letter-spacing:-.02em;}.cls-8{letter-spacing:-.02em;}.cls-9{letter-spacing:-.02em;}.cls-4{font-family:AtypText-Medium, 'Atyp Text';font-size:79.79px;font-weight:500;}.cls-10{letter-spacing:-.06em;}.cls-11{letter-spacing:-.05em;}</style></defs><g id="Layer_1-2"><path class="cls-3" d="m598.17,76.03c7.81,0,13.85,3.15,18.64,8.94.88,1.13.63,2.64-.63,3.53l-5.79,5.54c-1.13,1.01-2.27.38-3.15-.38-2.02-2.27-5.16-4.03-8.69-4.03-6.8,0-12.34,5.79-12.34,12.85s5.42,12.85,12.22,12.85c5.42,0,7.81-2.64,10.08-4.79.88-.88,2.14-1.13,3.15-.38l5.42,4.66c1.26,1.01,1.76,2.27.88,3.53-4.28,6.68-10.96,10.58-19.9,10.58-14.23,0-26.7-11.34-26.7-26.45s12.72-26.45,26.83-26.45Z"/><path class="cls-3" d="m624.69,43.09c0-1.26,1.13-2.39,2.39-2.39h10.71c1.26,0,2.39,1.13,2.39,2.39v37.09c2.52-1.89,7.43-4.16,13.35-4.16,16,0,22.54,12.34,22.54,25.06v24.18c0,1.26-1.13,2.39-2.39,2.39h-10.2c-1.39,0-2.39-1.13-2.39-2.39v-24.31c0-6.93-3.9-11.33-9.95-11.33s-9.7,3.78-10.96,8.94v26.7c0,1.39-.76,2.39-2.64,2.39h-10.45c-1.26,0-2.39-1.13-2.39-2.39V43.09Z"/><path class="cls-3" d="m737.35,49.22c0-4.79,3.78-8.69,8.56-8.69s8.82,3.9,8.82,8.69-3.9,8.69-8.82,8.69-8.56-3.9-8.56-8.69Zm1.13,30.46c0-1.39,1.13-2.39,2.39-2.39h10.45c1.26,0,2.39,1.01,2.39,2.39v45.59c0,1.26-1.13,2.39-2.39,2.39h-10.45c-1.26,0-2.39-1.13-2.39-2.39v-45.59Z"/><path class="cls-3" d="m712.1,43.09c0-1.26,1.13-2.39,2.39-2.39h10.58c1.26,0,2.39,1.13,2.39,2.39v82.18c0,1.26-1.13,2.39-2.39,2.39h-10.58c-1.26,0-2.39-1.13-2.39-2.39V43.09Z"/><path class="cls-3" d="m684.92,62.66c0-4.79,3.78-8.69,8.56-8.69s8.82,3.9,8.82,8.69-3.9,8.69-8.82,8.69-8.56-3.9-8.56-8.69Zm1.13,17.02c0-1.39,1.13-2.39,2.39-2.39h10.45c1.26,0,2.39,1.01,2.39,2.39v45.59c0,1.26-1.13,2.39-2.39,2.39h-10.45c-1.26,0-2.39-1.13-2.39-2.39v-45.59Z"/><path class="cls-3" d="m760.73,124.01l17.88-33v-.25h-14.36c-1.26,0-2.27-1.13-2.27-2.39v-8.69c0-1.39,1.01-2.39,2.27-2.39h33.25c1.89,0,3.15,1.76,2.14,3.4l-18.26,33.25v.38h13.6c1.39,0,2.39,1.01,2.39,2.39v8.56c0,1.26-1.01,2.39-2.39,2.39h-31.86c-1.26,0-2.39-1.13-2.39-2.39v-1.26Z"/><path class="cls-3" d="m464.14,43.82l26.53-16.37c2.33-1.32,2.33-4.05.65-5.72L469.16.32c-.44-.43-1.14-.43-1.57,0l-2.09,2.1c-2.68,2.69-2.67,7.05.03,9.73l8.65,7.98c1.47,1.46,1.19,3.91-.57,5l-10.34,6.33c-3.23,2-4.22,6.24-2.22,9.47l1.56,2.52c.32.52,1.01.68,1.53.36Z"/><path class="cls-3" d="m489.73,131.64c2.18-9.42-.4-19.31-6.91-26.47l-16.75-18.99c-9.32-10.57-7.02-26.97,4.86-34.56l27.4-17.52c1.77-1.13,4.08-.92,5.62.5,10.02,9.25,44.9,42.56,43.35,76.97,0,0,.04,53.43-52.58,73.43-7.73,2.94-15.56-4.13-13.54-12.15,7.27-28.8,8.54-41.22,8.54-41.22Zm6.86-82.28c-4.19,2.66-12.31,7.8-19.24,12.19-4.64,2.94-5.57,9.31-1.98,13.46l17.51,20.25c10.03,11.03,14.02,26.29,10.66,40.82l-2.94,12.88c-1.27,5.59,5.32,9.5,9.66,5.76,18.45-15.92,44.31-54.21-9.63-104.97-1.1-1.03-2.77-1.19-4.04-.38Z"/><text class="cls-4" transform="translate(0 123.4)"><tspan class="cls-11" x="0" y="0">P</tspan><tspan class="cls-5" x="43.25" y="0">o</tspan><tspan class="cls-2" x="88.96" y="0">w</tspan><tspan class="cls-9" x="153.27" y="0">e</tspan><tspan class="cls-10" x="200.51" y="0">r</tspan><tspan class="cls-1" x="226.2" y="0">e</tspan><tspan class="cls-8" x="273.04" y="0">d </tspan><tspan class="cls-6" x="344.92" y="0">b</tspan><tspan class="cls-7" x="391.92" y="0">y</tspan></text></g></svg>