<svg width="356" height="202" viewBox="0 0 356 202" fill="none" xmlns="http://www.w3.org/2000/svg">
<path opacity="0.08" d="M354.31 114.21C354.054 137.878 334.346 159.36 302.21 174.873C270.123 190.362 225.871 199.772 177.068 199.389C128.264 199.007 84.2225 188.904 52.4745 172.915C20.6789 156.902 1.43655 135.114 1.69166 111.447C1.94678 87.779 21.6555 66.2966 53.791 50.7844C85.8783 35.2955 130.13 25.8852 178.934 26.2677C227.737 26.6503 271.779 36.7525 303.527 52.7418C335.322 68.7551 354.565 90.5427 354.31 114.21Z" stroke="#FF1D00" stroke-width="1.5"/>
<path opacity="0.142857" d="M354.312 101.327C354.231 111.905 349.313 122.013 340.374 131.246C331.432 140.482 318.495 148.806 302.476 155.784C270.442 169.74 226.216 178.254 177.401 177.981C128.586 177.707 84.4963 168.698 52.6794 154.385C36.7699 147.228 23.9623 138.759 15.1627 129.424C6.36679 120.092 1.60557 109.93 1.68707 99.3514C1.76856 88.7728 6.68595 78.6649 15.6249 69.4327C24.5675 60.1966 37.5045 51.8722 53.5229 44.8939C85.5576 30.9381 129.783 22.4239 178.598 22.6974C227.413 22.9708 271.503 31.9797 303.32 46.2932C319.229 53.4504 332.037 61.919 340.836 71.2545C349.632 80.5861 354.394 90.7482 354.312 101.327Z" stroke="#FF1D00" stroke-width="1.5"/>
<path opacity="0.285714" d="M354.315 88.5085C354.267 97.8224 349.414 106.757 340.505 114.949C331.595 123.142 318.684 130.536 302.682 136.742C270.682 149.153 226.473 156.754 177.648 156.571C128.822 156.389 84.6928 148.458 52.8221 135.809C36.8845 129.483 24.0499 121.993 15.2245 113.734C6.40005 105.476 1.63811 96.5048 1.68597 87.1909C1.73383 77.8771 6.58779 68.9422 15.4968 60.7504C24.4067 52.5576 37.3178 45.1633 53.3198 38.9572C85.3193 26.5467 129.528 18.9456 178.354 19.128C227.179 19.3105 271.309 27.2417 303.179 39.8908C319.117 46.2163 331.951 53.7068 340.777 61.9658C349.601 70.2239 354.363 79.1947 354.315 88.5085Z" stroke="#FF1D00" stroke-width="1.5"/>
<path opacity="0.428571" d="M354.314 75.7556C354.289 83.7959 349.501 91.5575 340.607 98.7111C331.719 105.859 318.823 112.319 302.83 117.747C270.851 128.6 226.649 135.271 177.814 135.161C128.978 135.052 84.8184 128.182 52.9065 117.186C36.9469 111.687 24.0917 105.17 15.2477 97.9813C6.39731 90.7879 1.65757 83.005 1.68237 74.9647C1.70717 66.9244 6.49486 59.1629 15.3895 52.0093C24.2777 44.8609 37.173 38.4011 53.1663 32.9734C85.1455 22.1207 129.347 15.4495 178.183 15.559C227.018 15.6686 271.178 22.5379 303.09 33.534C319.049 39.0333 331.905 45.5508 340.749 52.739C349.599 59.9324 354.339 67.7153 354.314 75.7556Z" stroke="#FF1D00" stroke-width="1.5"/>
<path opacity="0.571429" d="M354.315 63.0687C354.304 69.8239 349.594 76.4137 340.694 82.5328C331.817 88.6359 318.929 94.1566 302.938 98.7992C270.966 108.082 226.765 113.806 177.92 113.751C129.075 113.696 84.8911 107.873 52.9483 98.5188C36.9719 93.8403 24.1003 88.2907 15.2424 82.1677C6.36137 76.0287 1.67164 69.4283 1.68207 62.6731C1.69249 55.9179 6.40256 49.3281 15.3025 43.209C24.1793 37.1059 37.068 31.5852 53.0587 26.9426C85.0302 17.6601 129.232 11.9358 178.077 11.9906C226.922 12.0454 271.105 17.8688 303.048 27.223C319.025 31.9015 331.896 37.4511 340.754 43.5741C349.635 49.7131 354.325 56.3135 354.315 63.0687Z" stroke="#FF1D00" stroke-width="1.5"/>
<path opacity="0.714286" d="M354.316 50.4473C354.313 55.9021 349.704 61.3258 340.771 66.4152C331.897 71.4714 319.006 76.048 303.013 79.8991C271.039 87.5985 226.832 92.359 177.978 92.3407C129.124 92.3225 84.9213 87.5289 52.9553 79.8056C36.9665 75.9425 24.0808 71.3563 15.2112 66.2934C6.28348 61.1974 1.6803 55.7703 1.68311 50.3155C1.68592 44.8606 6.29468 39.437 15.2276 34.3476C24.1024 29.2914 36.9928 24.7148 52.9857 20.8637C84.9596 13.1643 129.167 8.40379 178.021 8.42206C226.875 8.44033 271.078 13.2339 303.044 20.9572C319.032 24.8202 331.918 29.4065 340.788 34.4694C349.715 39.5654 354.319 44.9925 354.316 50.4473Z" stroke="#FF1D00" stroke-width="1.5"/>
<path opacity="0.857143" d="M354.316 37.892C354.316 39.9384 353.233 42.0313 350.958 44.153C348.683 46.2741 345.286 48.3557 340.843 50.3603C331.961 54.3673 319.062 57.9944 303.064 61.0472C271.08 67.1505 226.863 70.9303 178 70.9303C129.137 70.9303 84.9195 67.1505 52.9357 61.0472C36.9376 57.9944 24.0385 54.3673 15.1568 50.3603C10.7135 48.3557 7.31702 46.2741 5.04246 44.153C2.76731 42.0313 1.68359 39.9384 1.68359 37.892C1.68359 35.8455 2.76731 33.7526 5.04246 31.6309C7.31702 29.5099 10.7135 27.4283 15.1568 25.4237C24.0385 21.4166 36.9376 17.7895 52.9357 14.7367C84.9195 8.63347 129.137 4.85364 178 4.85364C226.863 4.85364 271.08 8.63347 303.064 14.7367C319.062 17.7895 331.961 21.4166 340.843 25.4237C345.286 27.4283 348.683 29.5099 350.958 31.6309C353.233 33.7526 354.316 35.8455 354.316 37.892Z" stroke="#FF1D00" stroke-width="1.5"/>
<path d="M354.316 25.4026C354.316 26.7343 353.349 28.2147 351.045 29.7959C348.771 31.3565 345.369 32.8916 340.915 34.3703C332.019 37.3243 319.105 39.996 303.101 42.2437C271.102 46.7376 226.872 49.5199 178 49.5199C129.128 49.5199 84.898 46.7376 52.8994 42.2437C36.8945 39.996 23.9811 37.3243 15.0847 34.3703C10.6314 32.8916 7.22933 31.3565 4.95535 29.7959C2.65147 28.2147 1.68359 26.7343 1.68359 25.4026C1.68359 24.0709 2.65147 22.5905 4.95535 21.0093C7.22933 19.4487 10.6314 17.9136 15.0847 16.4349C23.9811 13.4809 36.8945 10.8092 52.8994 8.56146C84.898 4.06756 129.128 1.28528 178 1.28528C226.872 1.28528 271.102 4.06756 303.101 8.56146C319.105 10.8092 332.019 13.4809 340.915 16.4349C345.369 17.9136 348.771 19.4487 351.045 21.0093C353.349 22.5905 354.316 24.0709 354.316 25.4026Z" stroke="#FF1D00" stroke-width="1.5"/>
</svg>
