<svg width="1386" height="195" viewBox="0 0 1386 195" fill="none" xmlns="http://www.w3.org/2000/svg">
<path d="M1384.6 97.4145C1384.6 103.742 1380.03 110.1 1370.86 116.392C1361.72 122.664 1348.19 128.743 1330.7 134.551C1295.73 146.162 1245.09 156.631 1182.46 165.427C1057.21 183.016 884.162 193.899 692.999 193.899C501.835 193.899 328.785 183.016 203.538 165.427C140.909 156.631 90.2652 146.162 55.294 134.551C37.8034 128.743 24.2779 122.664 15.1399 116.392C5.97198 110.1 1.39941 103.742 1.39941 97.4145C1.39941 91.087 5.97198 84.729 15.1399 78.4369C24.2779 72.1653 37.8034 66.086 55.294 60.2785C90.2652 48.6667 140.909 38.1981 203.538 29.4024C328.785 11.8127 501.835 0.930542 692.999 0.930542C884.162 0.930542 1057.21 11.8127 1182.46 29.4024C1245.09 38.1981 1295.73 48.6667 1330.7 60.2785C1348.19 66.086 1361.72 72.1653 1370.86 78.4369C1380.03 84.729 1384.6 91.087 1384.6 97.4145Z" stroke="#FF1D00" stroke-width="1.5"/>
</svg>
