<svg width="28" height="190" viewBox="0 0 28 190" fill="none" xmlns="http://www.w3.org/2000/svg">
<line x1="10.3267" y1="2.70166" x2="17.4734" y2="2.70166" stroke="#272A2A"/>
<rect x="10.1011" y="0.819336" width="3.04989" height="3.04989" transform="rotate(45 10.1011 0.819336)" fill="#595959"/>
<rect x="17.8433" y="0.819336" width="3.04989" height="3.04989" transform="rotate(45 17.8433 0.819336)" fill="#595959"/>
<line x1="10.3267" y1="15.0146" x2="17.4734" y2="15.0146" stroke="#272A2A"/>
<rect x="10.1011" y="13.1323" width="3.04989" height="3.04989" transform="rotate(45 10.1011 13.1323)" fill="#595959"/>
<rect x="17.8433" y="13.1323" width="3.04989" height="3.04989" transform="rotate(45 17.8433 13.1323)" fill="#595959"/>
<line x1="2.88232" y1="27.3281" x2="25.5138" y2="27.3281" stroke="#272A2A"/>
<rect x="2.65674" y="25.4458" width="3.04989" height="3.04989" transform="rotate(45 2.65674 25.4458)" fill="#272A2A"/>
<rect x="25.2881" y="25.4458" width="3.04989" height="3.04989" transform="rotate(45 25.2881 25.4458)" fill="#272A2A"/>
<line x1="2.88232" y1="39.6411" x2="25.5138" y2="39.6411" stroke="#272A2A"/>
<rect x="2.65674" y="37.7588" width="3.04989" height="3.04989" transform="rotate(45 2.65674 37.7588)" fill="#272A2A"/>
<rect x="25.2881" y="37.7588" width="3.04989" height="3.04989" transform="rotate(45 25.2881 37.7588)" fill="#272A2A"/>
<line x1="2.88232" y1="51.9546" x2="25.5138" y2="51.9546" stroke="#272A2A"/>
<rect x="2.65674" y="50.0723" width="3.04989" height="3.04989" transform="rotate(45 2.65674 50.0723)" fill="#595959"/>
<rect x="25.2881" y="50.0723" width="3.04989" height="3.04989" transform="rotate(45 25.2881 50.0723)" fill="#FF1D00"/>
<line x1="10.3267" y1="64.2676" x2="17.4734" y2="64.2676" stroke="#272A2A"/>
<rect x="10.1011" y="62.3853" width="3.04989" height="3.04989" transform="rotate(45 10.1011 62.3853)" fill="#272A2A"/>
<rect x="17.8433" y="62.3853" width="3.04989" height="3.04989" transform="rotate(45 17.8433 62.3853)" fill="#272A2A"/>
<line x1="10.3267" y1="76.5811" x2="17.4734" y2="76.5811" stroke="#272A2A"/>
<rect x="10.1011" y="74.6987" width="3.04989" height="3.04989" transform="rotate(45 10.1011 74.6987)" fill="#272A2A"/>
<rect x="17.8433" y="74.6987" width="3.04989" height="3.04989" transform="rotate(45 17.8433 74.6987)" fill="#272A2A"/>
<line x1="10.3267" y1="88.894" x2="17.4734" y2="88.894" stroke="#272A2A"/>
<rect x="10.1011" y="87.0117" width="3.04989" height="3.04989" transform="rotate(45 10.1011 87.0117)" fill="#272A2A"/>
<rect x="17.8433" y="87.0117" width="3.04989" height="3.04989" transform="rotate(45 17.8433 87.0117)" fill="#272A2A"/>
<line x1="2.88184" y1="101.207" x2="25.5133" y2="101.207" stroke="#272A2A"/>
<rect x="3.84766" y="99.3247" width="3.04989" height="3.04989" transform="rotate(45 3.84766 99.3247)" fill="#595959"/>
<rect x="24.0967" y="99.3247" width="3.04989" height="3.04989" transform="rotate(45 24.0967 99.3247)" fill="#595959"/>
<line x1="2.88232" y1="113.521" x2="25.5138" y2="113.521" stroke="#272A2A"/>
<rect x="2.65674" y="111.638" width="3.04989" height="3.04989" transform="rotate(45 2.65674 111.638)" fill="#595959"/>
<rect x="25.2881" y="111.638" width="3.04989" height="3.04989" transform="rotate(45 25.2881 111.638)" fill="#595959"/>
<line x1="2.88232" y1="125.833" x2="25.5138" y2="125.833" stroke="#272A2A"/>
<rect x="2.65674" y="123.951" width="3.04989" height="3.04989" transform="rotate(45 2.65674 123.951)" fill="#272A2A"/>
<rect x="25.2881" y="123.951" width="3.04989" height="3.04989" transform="rotate(45 25.2881 123.951)" fill="#272A2A"/>
<line x1="2.88184" y1="138.147" x2="25.5133" y2="138.147" stroke="#272A2A"/>
<rect x="3.84766" y="136.265" width="3.04989" height="3.04989" transform="rotate(45 3.84766 136.265)" fill="#272A2A"/>
<rect x="24.0967" y="136.265" width="3.04989" height="3.04989" transform="rotate(45 24.0967 136.265)" fill="#272A2A"/>
<line x1="11.2202" y1="150.46" x2="15.9847" y2="150.46" stroke="#272A2A"/>
<rect x="10.9946" y="148.578" width="3.04989" height="3.04989" transform="rotate(45 10.9946 148.578)" fill="#595959"/>
<rect x="16.9502" y="148.578" width="3.04989" height="3.04989" transform="rotate(45 16.9502 148.578)" fill="#595959"/>
<line x1="11.2202" y1="162.773" x2="15.9847" y2="162.773" stroke="#272A2A"/>
<rect x="10.9946" y="160.891" width="3.04989" height="3.04989" transform="rotate(45 10.9946 160.891)" fill="#272A2A"/>
<rect x="16.9502" y="160.891" width="3.04989" height="3.04989" transform="rotate(45 16.9502 160.891)" fill="#272A2A"/>
<line x1="11.2202" y1="175.086" x2="15.9847" y2="175.086" stroke="#272A2A"/>
<rect x="10.9946" y="173.204" width="3.04989" height="3.04989" transform="rotate(45 10.9946 173.204)" fill="#595959"/>
<rect x="16.9502" y="173.204" width="3.04989" height="3.04989" transform="rotate(45 16.9502 173.204)" fill="#595959"/>
<line x1="11.2202" y1="187.4" x2="15.9847" y2="187.4" stroke="#272A2A"/>
<rect x="10.9946" y="185.518" width="3.04989" height="3.04989" transform="rotate(45 10.9946 185.518)" fill="#595959"/>
<rect x="16.9502" y="185.518" width="3.04989" height="3.04989" transform="rotate(45 16.9502 185.518)" fill="#595959"/>
</svg>
