<svg width="244" height="80" viewBox="0 0 244 80" fill="none" xmlns="http://www.w3.org/2000/svg">
<path d="M81.6185 0.00390625H0.859375V80.0039H81.6185V0.00390625Z" fill="#8716E8"/>
<path d="M122.86 39.4763C122.439 39.0546 121.89 38.5907 121.131 38.2955C120.372 37.9581 119.613 37.6629 118.517 37.4099L116.999 37.0725C116.577 36.946 116.239 36.8617 115.902 36.7352C115.565 36.6086 115.354 36.5243 115.143 36.3978C114.932 36.2713 114.806 36.0604 114.721 35.9761C114.595 35.7652 114.595 35.6387 114.595 35.4278C114.595 35.217 114.721 34.8796 114.806 34.6687C114.932 34.4579 115.227 34.3314 115.565 34.1205C115.902 33.994 116.324 33.9096 116.746 33.9096C117.505 33.9096 118.179 34.1205 118.475 34.4579C118.896 34.7953 119.149 35.217 119.149 35.8496H123.83C123.83 34.6687 123.493 33.6988 122.945 32.7288C122.397 31.8432 121.511 31.1263 120.414 30.6624C119.318 30.1142 118.137 29.9033 116.577 29.9033C115.143 29.9033 113.836 30.1142 112.739 30.6624C111.643 31.0841 110.757 31.8432 110.125 32.7288C109.45 33.6144 109.155 34.5844 109.239 35.7652C109.239 37.1569 109.661 38.2533 110.673 39.0968C111.558 39.9824 112.866 40.4885 114.51 40.8258L116.366 41.2475C117.041 41.3741 117.547 41.5849 118.011 41.6693C118.432 41.8801 118.685 42.0066 118.896 42.2175C119.107 42.4284 119.107 42.6392 119.107 42.9766C119.107 43.314 118.981 43.5248 118.77 43.7357C118.559 43.9465 118.348 44.1574 118.011 44.2839C117.673 44.4104 117.252 44.4948 116.703 44.4948C116.029 44.4948 115.523 44.3683 115.059 44.1574C114.637 43.9465 114.3 43.7357 113.962 43.2718C113.751 42.9344 113.54 42.3862 113.54 41.8801H108.859C108.859 43.3983 109.197 44.5791 109.829 45.5491C110.504 46.519 111.348 47.2781 112.57 47.6998C113.793 48.1216 115.101 48.3324 116.703 48.3324C118.222 48.3324 119.529 48.1216 120.625 47.6998C121.722 47.2781 122.607 46.6034 123.156 45.8443C123.704 44.9587 124.041 43.9887 124.041 42.8079C124.041 42.1753 123.915 41.5006 123.704 40.868C123.62 40.5728 123.282 40.0246 122.86 39.4763Z" fill="white"/>
<path d="M137.486 37.3269H130.908V30.2842H126.016V48.3337H130.908V41.291H137.444V48.3337H142.336V30.2842H137.444V37.3269H137.486Z" fill="white"/>
<path d="M144.676 48.3337H157.665V44.3274H149.61V41.291H157.032V37.2847H149.61V34.164H157.791V30.2842H144.676V48.3337Z" fill="white"/>
<path d="M173.8 39.6898C174.349 38.8042 174.686 37.7499 174.686 36.4426C174.686 35.1353 174.349 34.081 173.8 33.111C173.252 32.2254 172.493 31.5085 171.397 30.9603C170.427 30.412 169.204 30.2012 167.896 30.2012H160.137V48.2507H165.071V42.3045H166.8L169.963 48.2507H175.319L171.607 41.4189C172.493 41.1237 173.294 40.4489 173.8 39.6898ZM165.071 34.1653H166.8C167.348 34.1653 167.896 34.2919 168.318 34.3762C168.74 34.5027 169.077 34.7979 169.288 35.1353C169.499 35.4727 169.625 35.8944 169.625 36.4426C169.625 36.9908 169.499 37.4126 169.288 37.6234C169.077 37.9608 168.74 38.1717 168.318 38.256C167.896 38.3825 167.432 38.4669 166.8 38.4669H165.071V34.1653Z" fill="white"/>
<path d="M181.689 30.2842H176.797V48.3337H189.027V44.3274H181.731V30.2842H181.689Z" fill="white"/>
<path d="M202.64 31.0447C201.332 30.2856 199.814 29.9482 198.169 29.9482C196.525 29.9482 195.007 30.2856 193.699 31.0447C192.392 31.8038 191.295 32.7738 190.536 34.1654C189.777 35.5571 189.355 37.2018 189.355 39.2682C189.355 41.3346 189.777 42.9372 190.536 44.371C191.295 45.7627 192.392 46.7326 193.699 47.4917C195.007 48.2508 196.525 48.5882 198.169 48.5882C199.814 48.5882 201.332 48.2508 202.64 47.4917C203.947 46.7326 205.043 45.7627 205.802 44.371C206.562 42.9793 206.983 41.3346 206.983 39.2682C206.983 37.2018 206.562 35.5993 205.802 34.1654C205.043 32.7738 203.947 31.8038 202.64 31.0447ZM201.543 42.0937C201.206 42.8528 200.868 43.4011 200.236 43.8228C199.688 44.2445 199.055 44.371 198.169 44.371C197.41 44.371 196.651 44.1602 196.103 43.8228C195.555 43.4011 195.133 42.8528 194.796 42.0937C194.458 41.3346 194.374 40.4912 194.374 39.3947C194.374 38.2983 194.5 37.4548 194.796 36.6957C195.133 35.9366 195.47 35.3884 196.103 34.9667C196.651 34.545 197.284 34.4184 198.169 34.4184C198.928 34.4184 199.688 34.6293 200.236 34.9667C200.784 35.3884 201.206 35.9366 201.543 36.6957C201.881 37.4548 201.965 38.2983 201.965 39.3947C201.965 40.3647 201.754 41.3346 201.543 42.0937Z" fill="white"/>
<path d="M214.883 34.9232C215.431 34.5015 216.19 34.2906 216.949 34.2906C217.371 34.2906 217.835 34.4171 218.256 34.5015C218.594 34.628 218.931 34.8388 219.226 35.0497C219.437 35.2606 219.648 35.5979 219.901 35.9353C220.028 36.2727 220.112 36.6944 220.239 37.0318H225.257C225.13 35.9353 224.92 34.881 224.498 33.9954C224.076 33.1098 223.528 32.3929 222.769 31.8446C222.01 31.2121 221.251 30.7482 220.239 30.453C219.269 30.1156 218.256 30.0312 217.076 30.0312C215.431 30.0312 214.039 30.3686 212.605 31.1277C211.298 31.8868 210.202 32.8568 209.443 34.2484C208.683 35.6401 208.262 37.2848 208.262 39.3512C208.262 41.4177 208.599 43.0202 209.358 44.454C210.117 45.8457 211.214 46.8156 212.521 47.5747C213.828 48.3338 215.347 48.6712 216.991 48.6712C218.299 48.6712 219.522 48.4604 220.492 48.0386C221.462 47.6169 222.347 47.0687 223.022 46.4361C223.697 45.8035 224.203 45.0444 224.54 44.2853C224.877 43.5262 225.088 42.6828 225.215 41.9237H220.196C220.07 42.3454 219.985 42.6828 219.859 43.0202C219.648 43.3576 219.522 43.5684 219.184 43.7793C218.973 43.9901 218.636 44.201 218.214 44.3275C217.877 44.454 217.455 44.5384 217.033 44.5384C216.274 44.5384 215.515 44.3275 214.967 43.9901C214.419 43.6528 213.997 43.0202 213.66 42.2611C213.322 41.502 213.238 40.6586 213.238 39.4356C213.238 38.3391 213.365 37.4957 213.66 36.7366C213.871 35.8931 214.334 35.2606 214.883 34.9232Z" fill="white"/>
<path d="M236.812 38.2968L242.927 30.2842H237.234L231.793 37.5377H231.583V30.2842H226.648V48.3337H231.54V43.6948L233.185 41.5441L237.234 48.3759H243.138L236.812 38.2968Z" fill="white"/>
<path d="M75.2866 20.666L65.8822 20.7925H65.4605C63.4784 20.919 61.7494 21.6781 60.4421 22.7324L53.5681 28.0461C53.5681 28.0461 53.4415 28.0461 53.4415 28.1726L34.6751 42.5532V34.6671C34.6751 33.6971 33.916 32.938 32.946 32.938L13.4204 33.1489C12.4505 33.1489 11.6914 33.908 11.6914 34.8779L11.8179 47.7403V49.3429V50.4393V50.6502C11.8179 50.8611 11.8179 51.0719 11.8179 51.4093C11.8179 51.5358 11.8179 51.5358 11.8179 51.6202C11.8179 51.7467 11.8179 51.7467 11.8179 51.831C11.8179 52.1684 11.9444 52.4636 11.9444 52.5901C11.9444 52.9275 12.0709 53.1383 12.1553 53.4757C12.3662 54.2348 12.577 54.8674 12.9144 55.3313C13.1252 55.753 13.3361 56.0904 13.6735 56.5121C14.3482 57.482 15.1073 58.1146 15.7399 58.5785C17.5955 59.9702 20.421 60.9401 23.5839 60.9401C26.7468 60.9401 29.6988 59.9702 31.4278 58.452C31.6387 58.3255 31.8495 58.1146 32.1026 58.0303C32.6508 57.6086 33.5364 56.7229 34.5064 55.753C35.1811 55.1204 35.8137 54.3613 36.2354 53.8974L53.6946 35.7214C53.8211 35.5948 53.9054 35.5105 53.9054 35.384L57.6166 31.5042L62.0024 27.0761L62.888 26.1062C64.4062 24.7145 66.3883 23.8289 68.6656 23.8289H72.7141H75.4552C76.3409 23.8289 76.9734 23.0698 76.9734 22.2264C76.9313 21.4251 76.13 20.666 75.2866 20.666Z" fill="white"/>
</svg>
