<svg width="243" height="81" viewBox="0 0 243 81" fill="none" xmlns="http://www.w3.org/2000/svg">
<path d="M81.1219 0.450195H0.362793V80.4502H81.1219V0.450195Z" fill="#444444"/>
<path d="M122.364 39.9226C121.942 39.5009 121.394 39.037 120.635 38.7418C119.876 38.4044 119.117 38.1092 118.02 37.8562L116.502 37.5188C116.08 37.3923 115.743 37.308 115.405 37.1814C115.068 37.0549 114.857 36.9706 114.646 36.8441C114.436 36.7176 114.309 36.5067 114.225 36.4224C114.098 36.2115 114.098 36.085 114.098 35.8741C114.098 35.6633 114.225 35.3259 114.309 35.115C114.436 34.9042 114.731 34.7777 115.068 34.5668C115.405 34.4403 115.827 34.3559 116.249 34.3559C117.008 34.3559 117.683 34.5668 117.978 34.9042C118.4 35.2415 118.653 35.6633 118.653 36.2958H123.334C123.334 35.115 122.996 34.1451 122.448 33.1751C121.9 32.2895 121.014 31.5726 119.918 31.1087C118.821 30.5605 117.641 30.3496 116.08 30.3496C114.646 30.3496 113.339 30.5605 112.243 31.1087C111.146 31.5304 110.261 32.2895 109.628 33.1751C108.953 34.0607 108.658 35.0307 108.742 36.2115C108.742 37.6032 109.164 38.6996 110.176 39.5431C111.062 40.4287 112.369 40.9347 114.014 41.2721L115.869 41.6938C116.544 41.8204 117.05 42.0312 117.514 42.1156C117.936 42.3264 118.189 42.4529 118.4 42.6638C118.611 42.8746 118.611 43.0855 118.611 43.4229C118.611 43.7603 118.484 43.9711 118.273 44.182C118.062 44.3928 117.851 44.6037 117.514 44.7302C117.177 44.8567 116.755 44.9411 116.207 44.9411C115.532 44.9411 115.026 44.8146 114.562 44.6037C114.14 44.3928 113.803 44.182 113.466 43.7181C113.255 43.3807 113.044 42.8325 113.044 42.3264H108.363C108.363 43.8446 108.7 45.0254 109.333 45.9954C110.007 46.9653 110.851 47.7244 112.074 48.1461C113.297 48.5678 114.604 48.7787 116.207 48.7787C117.725 48.7787 119.032 48.5678 120.129 48.1461C121.225 47.7244 122.111 47.0497 122.659 46.2906C123.207 45.405 123.545 44.435 123.545 43.2542C123.545 42.6216 123.418 41.9469 123.207 41.3143C123.123 41.0191 122.786 40.4708 122.364 39.9226Z" fill="#999999"/>
<path d="M136.99 37.7732H130.411V30.7305H125.519V48.78H130.411V41.7373H136.948V48.78H141.84V30.7305H136.948V37.7732H136.99Z" fill="#999999"/>
<path d="M144.179 48.78H157.168V44.7737H149.113V41.7373H156.536V37.731H149.113V34.6103H157.295V30.7305H144.179V48.78Z" fill="#999999"/>
<path d="M173.304 40.1361C173.852 39.2505 174.189 38.1962 174.189 36.8889C174.189 35.5816 173.852 34.5273 173.304 33.5573C172.756 32.6717 171.996 31.9548 170.9 31.4066C169.93 30.8583 168.707 30.6475 167.4 30.6475H159.64V48.697H164.574V42.7508H166.303L169.466 48.697H174.822L171.111 41.8652C171.996 41.57 172.798 40.8952 173.304 40.1361ZM164.574 34.6116H166.303C166.852 34.6116 167.4 34.7381 167.821 34.8225C168.243 34.949 168.581 35.2442 168.791 35.5816C169.002 35.9189 169.129 36.3407 169.129 36.8889C169.129 37.4371 169.002 37.8589 168.791 38.0697C168.581 38.4071 168.243 38.6179 167.821 38.7023C167.4 38.8288 166.936 38.9131 166.303 38.9131H164.574V34.6116Z" fill="#999999"/>
<path d="M181.192 30.7305H176.3V48.78H188.53V44.7737H181.234V30.7305H181.192Z" fill="#999999"/>
<path d="M202.143 31.491C200.836 30.7319 199.318 30.3945 197.673 30.3945C196.028 30.3945 194.51 30.7319 193.203 31.491C191.895 32.2501 190.799 33.22 190.04 34.6117C189.281 36.0034 188.859 37.6481 188.859 39.7145C188.859 41.7809 189.281 43.3835 190.04 44.8173C190.799 46.209 191.895 47.1789 193.203 47.938C194.51 48.6971 196.028 49.0345 197.673 49.0345C199.318 49.0345 200.836 48.6971 202.143 47.938C203.45 47.1789 204.547 46.209 205.306 44.8173C206.065 43.4256 206.487 41.7809 206.487 39.7145C206.487 37.6481 206.065 36.0456 205.306 34.6117C204.547 33.22 203.45 32.2501 202.143 31.491ZM201.047 42.54C200.709 43.2991 200.372 43.8473 199.739 44.2691C199.191 44.6908 198.558 44.8173 197.673 44.8173C196.914 44.8173 196.155 44.6064 195.606 44.2691C195.058 43.8473 194.636 43.2991 194.299 42.54C193.962 41.7809 193.877 40.9375 193.877 39.841C193.877 38.7446 194.004 37.9011 194.299 37.142C194.636 36.3829 194.974 35.8347 195.606 35.413C196.155 34.9913 196.787 34.8647 197.673 34.8647C198.432 34.8647 199.191 35.0756 199.739 35.413C200.287 35.8347 200.709 36.3829 201.047 37.142C201.384 37.9011 201.468 38.7446 201.468 39.841C201.468 40.811 201.257 41.7809 201.047 42.54Z" fill="#999999"/>
<path d="M214.386 35.3695C214.934 34.9478 215.693 34.7369 216.453 34.7369C216.874 34.7369 217.338 34.8634 217.76 34.9478C218.097 35.0743 218.435 35.2851 218.73 35.496C218.941 35.7068 219.152 36.0442 219.405 36.3816C219.531 36.719 219.615 37.1407 219.742 37.4781H224.76C224.634 36.3816 224.423 35.3273 224.001 34.4417C223.58 33.5561 223.031 32.8392 222.272 32.2909C221.513 31.6584 220.754 31.1945 219.742 30.8993C218.772 30.5619 217.76 30.4775 216.579 30.4775C214.934 30.4775 213.543 30.8149 212.109 31.574C210.802 32.3331 209.705 33.3031 208.946 34.6947C208.187 36.0864 207.765 37.7311 207.765 39.7975C207.765 41.8639 208.103 43.4665 208.862 44.9003C209.621 46.292 210.717 47.2619 212.024 48.021C213.332 48.7801 214.85 49.1175 216.495 49.1175C217.802 49.1175 219.025 48.9066 219.995 48.4849C220.965 48.0632 221.851 47.515 222.525 46.8824C223.2 46.2498 223.706 45.4907 224.043 44.7316C224.381 43.9725 224.592 43.1291 224.718 42.37H219.7C219.573 42.7917 219.489 43.1291 219.362 43.4665C219.152 43.8039 219.025 44.0147 218.688 44.2256C218.477 44.4364 218.139 44.6473 217.718 44.7738C217.38 44.9003 216.959 44.9847 216.537 44.9847C215.778 44.9847 215.019 44.7738 214.47 44.4364C213.922 44.099 213.501 43.4665 213.163 42.7074C212.826 41.9483 212.741 41.1049 212.741 39.8819C212.741 38.7854 212.868 37.942 213.163 37.1829C213.374 36.3394 213.838 35.7069 214.386 35.3695Z" fill="#999999"/>
<path d="M236.315 38.7431L242.43 30.7305H236.737L231.297 37.984H231.086V30.7305H226.152V48.78H231.044V44.1411L232.688 41.9904L236.737 48.8222H242.641L236.315 38.7431Z" fill="#999999"/>
<path d="M74.79 21.1123L65.3856 21.2388H64.9639C62.9818 21.3653 61.2528 22.1244 59.9455 23.1787L53.0715 28.4924C53.0715 28.4924 52.945 28.4924 52.945 28.6189L34.1785 42.9995V35.1134C34.1785 34.1434 33.4194 33.3843 32.4494 33.3843L12.9239 33.5952C11.9539 33.5952 11.1948 34.3543 11.1948 35.3242L11.3213 48.1866V49.7892V50.8856V51.0965C11.3213 51.3073 11.3213 51.5182 11.3213 51.8556C11.3213 51.9821 11.3213 51.9821 11.3213 52.0664C11.3213 52.193 11.3213 52.193 11.3213 52.2773C11.3213 52.6147 11.4479 52.9099 11.4479 53.0364C11.4479 53.3738 11.5744 53.5846 11.6587 53.922C11.8696 54.6811 12.0804 55.3137 12.4178 55.7776C12.6287 56.1993 12.8395 56.5367 13.1769 56.9584C13.8516 57.9283 14.6107 58.5609 15.2433 59.0248C17.0989 60.4165 19.9244 61.3864 23.0873 61.3864C26.2502 61.3864 29.2022 60.4165 30.9313 58.8983C31.1421 58.7718 31.353 58.5609 31.606 58.4766C32.1542 58.0548 33.0398 57.1692 34.0098 56.1993C34.6845 55.5667 35.3171 54.8076 35.7388 54.3437L53.198 36.1677C53.3245 36.0411 53.4088 35.9568 53.4088 35.8303L57.12 31.9505L61.5058 27.5224L62.3915 26.5525C63.9096 25.1608 65.8917 24.2752 68.169 24.2752H72.2175H74.9587C75.8443 24.2752 76.4769 23.5161 76.4769 22.6727C76.4347 21.8714 75.6334 21.1123 74.79 21.1123Z" fill="#999999"/>
</svg>
