<svg width="1386" height="335" viewBox="0 0 1386 335" fill="none" xmlns="http://www.w3.org/2000/svg">
<path opacity="0.714286" d="M1384.59 168.162C1384.58 190.778 1365.55 212.545 1330.53 232.494C1295.57 252.41 1244.94 270.364 1182.32 285.443C1057.09 315.6 884.054 334.224 692.908 334.152C501.763 334.081 328.747 315.327 203.544 285.077C140.937 269.951 90.3279 251.959 55.3912 232.017C20.3965 212.042 1.38294 190.261 1.39457 167.645C1.4062 145.03 20.4421 123.263 55.4574 103.314C90.4146 83.3973 141.043 65.4438 203.665 50.3642C328.899 20.2078 501.934 1.58394 693.079 1.65543C884.225 1.72692 1057.24 20.4802 1182.44 50.7302C1245.05 65.8567 1295.66 83.8481 1330.6 103.79C1365.59 123.766 1384.6 145.547 1384.59 168.162Z" stroke="#FF1D00" stroke-width="1.5"/>
</svg>
