<svg width="1386" height="266" viewBox="0 0 1386 266" fill="none" xmlns="http://www.w3.org/2000/svg">
<path opacity="0.857143" d="M1384.6 133.069C1384.6 141.903 1379.91 150.624 1370.77 159.146C1361.63 167.668 1348.11 175.924 1330.63 183.811C1295.67 199.582 1245.04 213.803 1182.42 225.752C1057.19 249.649 884.152 264.435 692.998 264.435C501.843 264.435 328.805 249.649 203.573 225.752C140.951 213.803 90.3216 199.582 55.3651 183.811C37.8845 175.924 24.3646 167.668 15.226 159.146C6.08684 150.624 1.39844 141.903 1.39844 133.069C1.39844 124.234 6.08684 115.514 15.226 106.991C24.3646 98.4693 37.8845 90.2133 55.3651 82.3269C90.3216 66.556 140.951 52.335 203.573 40.3853C328.805 16.4882 501.843 1.70264 692.998 1.70264C884.152 1.70264 1057.19 16.4882 1182.42 40.3853C1245.04 52.335 1295.67 66.556 1330.63 82.3269C1348.11 90.2133 1361.63 98.4693 1370.77 106.991C1379.91 115.514 1384.6 124.234 1384.6 133.069Z" stroke="#FF1D00" strokeWidth="1.5"/>
</svg>
