<svg width="1386" height="545" viewBox="0 0 1386 545" fill="none" xmlns="http://www.w3.org/2000/svg">
<path opacity="0.285714" d="M1384.59 274.993C1384.4 312.221 1364.99 347.695 1329.88 379.977C1294.77 412.259 1244.02 441.295 1181.3 465.619C1055.87 514.267 882.721 544.015 691.606 543.301C500.49 542.587 327.658 511.546 202.728 461.963C140.261 437.17 89.8078 407.757 55.0321 375.213C20.2575 342.67 1.21358 307.053 1.40488 269.825C1.59618 232.597 21.0054 197.124 56.1132 164.842C91.2219 132.559 141.975 103.524 204.695 79.1992C330.129 30.5515 503.274 0.803019 694.39 1.51713C885.505 2.23124 1058.34 33.2725 1183.27 82.8557C1245.73 107.648 1296.19 137.062 1330.96 169.605C1365.74 202.148 1384.78 237.766 1384.59 274.993Z" stroke="#FF1D00" stroke-width="1.5"/>
</svg>
