<svg width="1386" height="195" viewBox="0 0 1386 195" fill="none" xmlns="http://www.w3.org/2000/svg">
<path d="M1384.6 97.234C1384.6 103.562 1380.02 109.92 1370.86 116.212C1361.72 122.483 1348.19 128.562 1330.7 134.37C1295.73 145.982 1245.09 156.45 1182.46 165.246C1057.21 182.836 884.161 193.718 692.998 193.718C501.834 193.718 328.784 182.836 203.537 165.246C140.908 156.45 90.2642 145.982 55.293 134.37C37.8024 128.562 24.2769 122.483 15.1389 116.212C5.971 109.92 1.39844 103.562 1.39844 97.234C1.39844 90.9064 5.971 84.5484 15.1389 78.2563C24.2769 71.9848 37.8024 65.9055 55.293 60.0979C90.2642 48.4861 140.908 38.0175 203.537 29.2219C328.784 11.6322 501.834 0.75 692.998 0.75C884.161 0.75 1057.21 11.6322 1182.46 29.2219C1245.09 38.0175 1295.73 48.4861 1330.7 60.0979C1348.19 65.9055 1361.72 71.9848 1370.86 78.2563C1380.02 84.5484 1384.6 90.9064 1384.6 97.234Z" stroke="#FF1D00" strokeWidth="1.5"/>
</svg>
