<svg width="1386" height="405" viewBox="0 0 1386 405" fill="none" xmlns="http://www.w3.org/2000/svg">
<path opacity="0.571429" d="M1384.59 203.515C1384.55 231.016 1365.39 257.353 1330.38 281.418C1295.41 305.468 1244.76 327.134 1182.13 345.319C1056.86 381.687 883.816 404.084 692.68 403.87C501.544 403.655 328.565 380.87 203.417 344.221C140.837 325.896 90.2601 304.116 55.3553 279.988C20.4272 255.844 1.34925 229.464 1.39167 201.964C1.4341 174.463 20.5934 148.126 55.5958 124.061C90.575 100.011 141.219 78.3449 203.855 60.1596C329.116 23.7919 502.164 1.39477 693.301 1.60918C884.437 1.8236 1057.42 24.6089 1182.56 61.2575C1245.14 79.5833 1295.72 101.363 1330.63 125.491C1365.55 149.635 1384.63 176.015 1384.59 203.515Z" stroke="#FF1D00" strokeWidth="1.5"/>
</svg>
