<svg width="1386" height="614" viewBox="0 0 1386 614" fill="none" xmlns="http://www.w3.org/2000/svg">
<path opacity="0.142857" d="M1384.58 311.118C1384.26 353.195 1364.69 393.229 1329.47 429.608C1294.24 465.991 1243.38 498.683 1180.58 526.041C1054.98 580.758 881.744 614.085 690.641 613.014C499.537 611.944 326.826 576.679 202.081 520.56C139.708 492.5 89.3596 459.241 54.6961 422.467C20.0363 385.696 1.0878 345.446 1.41196 303.37C1.73612 261.293 21.3031 221.259 56.5265 184.88C91.7536 148.497 142.61 115.805 205.41 88.4464C331.009 33.7297 504.249 0.403039 695.352 1.47358C886.455 2.54412 1059.17 37.8088 1183.91 93.9278C1246.28 121.988 1296.63 155.247 1331.3 192.021C1365.96 228.792 1384.9 269.042 1384.58 311.118Z" stroke="#FF1D00" stroke-width="1.5"/>
</svg>
