<svg width="1386" height="475" viewBox="0 0 1386 475" fill="none" xmlns="http://www.w3.org/2000/svg">
    <path opacity="0.428571"
        d="M1384.58 239.125C1384.48 271.495 1365.21 302.402 1330.17 330.579C1295.14 358.75 1244.46 384.111 1181.79 405.378C1056.47 447.909 883.386 474.014 692.26 473.586C501.133 473.157 328.214 446.276 203.153 403.183C140.619 381.635 90.0916 356.048 55.2379 327.719C20.3779 299.386 1.29095 268.393 1.39079 236.023C1.49064 203.653 20.7685 172.746 55.8029 144.569C90.8308 116.397 141.515 91.0372 204.181 69.7702C329.507 27.2387 502.589 1.13344 693.716 1.56211C884.842 1.99078 1057.76 28.8721 1182.82 71.9652C1245.36 93.5129 1295.88 119.1 1330.74 147.428C1365.6 175.762 1384.68 206.755 1384.58 239.125Z"
        stroke="#f63e02" strokeWidth="1.5" />
</svg>