<svg width="111" height="122" viewBox="0 0 111 122" fill="none" xmlns="http://www.w3.org/2000/svg">
    <path
        d="M48.2609 122C82.9122 122 111 94.6908 111 61C111 27.3092 82.9122 0 48.2609 0C30.2692 0 15.1539 11.9654 10.8683 28.1538H9.53674e-07V46.9231H10.8683C15.1539 63.1115 30.2692 75.0769 48.2609 75.0769V65.6923C58.9072 65.6923 67.5652 74.1103 67.5652 84.4615C67.5652 94.8128 58.9072 103.231 48.2609 103.231V122ZM48.2609 18.7692C72.2079 18.7692 91.6957 37.7168 91.6957 61C91.6957 68.1042 89.8714 74.7954 86.6765 80.6795C84.7268 61.7226 68.2698 46.9231 48.2609 46.9231V56.3077C37.6145 56.3077 28.9565 47.8897 28.9565 37.5385C28.9565 27.1872 37.6145 18.7692 48.2609 18.7692Z"
        fill="#ffffff" />
    <path
        d="M48.2609 122C82.9122 122 111 94.6908 111 61C111 27.3092 82.9122 0 48.2609 0C30.2692 0 15.1539 11.9654 10.8683 28.1538H9.53674e-07V46.9231H10.8683C15.1539 63.1115 30.2692 75.0769 48.2609 75.0769V65.6923C58.9072 65.6923 67.5652 74.1103 67.5652 84.4615C67.5652 94.8128 58.9072 103.231 48.2609 103.231V122ZM48.2609 18.7692C72.2079 18.7692 91.6957 37.7168 91.6957 61C91.6957 68.1042 89.8714 74.7954 86.6765 80.6795C84.7268 61.7226 68.2698 46.9231 48.2609 46.9231V56.3077C37.6145 56.3077 28.9565 47.8897 28.9565 37.5385C28.9565 27.1872 37.6145 18.7692 48.2609 18.7692Z"
        fill="black" fill-opacity="0.2" />
</svg>