<svg width="64" height="276" viewBox="0 0 64 276" fill="none" xmlns="http://www.w3.org/2000/svg">
<path d="M15.8867 24.458L17.3564 24.458L24.1855 28.7852L24.1855 30.002L22.0937 30.002L22.0937 29.2568L17.4863 26.3447L17.4043 26.3447L17.4043 32.3809L15.8867 32.3809L15.8867 24.458ZM14 29.3115L16.3311 29.3115L16.9941 29.3389L24.1855 29.3389L24.1855 31.0752L14 31.0752L14 29.3115ZM18.9766 45.0889L17.5 45.0889L17.5 40.5088L18.9766 40.5088L18.9766 45.0889ZM15.8867 53.251L17.3564 53.251L24.1855 57.5781L24.1855 58.7949L22.0937 58.7949L22.0937 58.0498L17.4863 55.1377L17.4043 55.1377L17.4043 61.1738L15.8867 61.1738L15.8867 53.251ZM14 58.1045L16.3311 58.1045L16.9941 58.1318L24.1855 58.1318L24.1855 59.8682L14 59.8682L14 58.1045ZM18.9766 73.8818L17.5 73.8818L17.5 69.3018L18.9766 69.3018L18.9766 73.8818ZM14 81.8662L15.3262 81.8662L18.7988 85.4072C19.1406 85.7399 19.4437 86.0179 19.708 86.2412C19.9723 86.4691 20.2275 86.64 20.4736 86.7539C20.7243 86.8678 20.9909 86.9248 21.2734 86.9248C21.5924 86.9248 21.8682 86.8519 22.1006 86.7061C22.333 86.5602 22.5107 86.3597 22.6338 86.1045C22.7568 85.8538 22.8184 85.5667 22.8184 85.2432C22.8184 84.9059 22.75 84.612 22.6133 84.3613C22.4766 84.1107 22.2829 83.9147 22.0322 83.7734C21.7816 83.6367 21.4831 83.5684 21.1367 83.5684L21.1367 81.8184C21.7793 81.8184 22.3376 81.9642 22.8115 82.2559C23.29 82.5521 23.6615 82.96 23.9258 83.4795C24.1901 83.999 24.3223 84.5937 24.3223 85.2637C24.3223 85.9518 24.1947 86.5534 23.9395 87.0684C23.6842 87.5833 23.3333 87.9844 22.8867 88.2715C22.4447 88.5586 21.9388 88.7021 21.3691 88.7021C20.9863 88.7021 20.6103 88.6292 20.2412 88.4834C19.8766 88.3376 19.4687 88.0801 19.0176 87.7109C18.571 87.3464 18.0309 86.8337 17.3975 86.1729L15.6133 84.4229L15.5381 84.4229L15.5381 88.8525L14 88.8525L14 81.8662ZM24.6641 111.192L12.4687 107.911L12.4687 106.332L24.6641 109.613L24.6641 111.192ZM24.6641 122.978L12.4687 119.696L12.4687 118.117L24.6641 121.398L24.6641 122.978ZM14 140.532L15.3262 140.532L18.7988 144.073C19.1406 144.406 19.4437 144.684 19.708 144.907C19.9723 145.135 20.2275 145.306 20.4736 145.42C20.7243 145.534 20.9909 145.591 21.2734 145.591C21.5924 145.591 21.8682 145.518 22.1006 145.372C22.333 145.226 22.5107 145.026 22.6338 144.771C22.7568 144.52 22.8184 144.233 22.8184 143.909C22.8184 143.572 22.75 143.278 22.6133 143.027C22.4766 142.777 22.2829 142.581 22.0322 142.439C21.7816 142.303 21.4831 142.234 21.1367 142.234L21.1367 140.484C21.7793 140.484 22.3376 140.63 22.8115 140.922C23.29 141.218 23.6615 141.626 23.9258 142.146C24.1901 142.665 24.3223 143.26 24.3223 143.93C24.3223 144.618 24.1947 145.219 23.9394 145.734C23.6842 146.249 23.3333 146.65 22.8867 146.937C22.4447 147.225 21.9388 147.368 21.3691 147.368C20.9863 147.368 20.6103 147.295 20.2412 147.149C19.8766 147.004 19.4687 146.746 19.0176 146.377C18.571 146.012 18.0309 145.5 17.3975 144.839L15.6133 143.089L15.5381 143.089L15.5381 147.519L14 147.519L14 140.532ZM18.9766 160.37L17.5 160.37L17.5 155.79L18.9766 155.79L18.9766 160.37ZM13.8633 172.271C13.8633 171.556 13.984 170.92 14.2256 170.364C14.4717 169.808 14.8135 169.368 15.251 169.045C15.6885 168.726 16.1943 168.56 16.7685 168.546L16.7685 170.405C16.4906 170.419 16.249 170.508 16.0439 170.672C15.8434 170.84 15.6862 171.064 15.5723 171.342C15.4629 171.62 15.4082 171.93 15.4082 172.271C15.4082 172.636 15.472 172.957 15.5996 173.235C15.7318 173.518 15.9095 173.739 16.1328 173.898C16.3607 174.058 16.6227 174.138 16.9189 174.138C17.2288 174.138 17.5023 174.056 17.7393 173.892C17.9762 173.732 18.1608 173.5 18.293 173.194C18.4251 172.889 18.4912 172.522 18.4912 172.094L18.4912 171.185L19.9131 171.185L19.9131 172.094C19.9131 172.44 19.9746 172.748 20.0976 173.017C20.2207 173.285 20.3916 173.495 20.6103 173.646C20.8337 173.796 21.0934 173.871 21.3896 173.871C21.6768 173.871 21.9274 173.805 22.1416 173.673C22.3558 173.545 22.5221 173.363 22.6406 173.126C22.7591 172.889 22.8184 172.611 22.8184 172.292C22.8184 171.982 22.7614 171.693 22.6475 171.424C22.5381 171.16 22.3809 170.945 22.1758 170.781C21.9707 170.622 21.7246 170.537 21.4375 170.528L21.4375 168.758C22.0072 168.767 22.5085 168.929 22.9414 169.243C23.3743 169.562 23.7116 169.988 23.9531 170.521C24.1992 171.055 24.3223 171.652 24.3223 172.312C24.3223 172.987 24.1947 173.575 23.9394 174.076C23.6888 174.582 23.3493 174.972 22.9209 175.245C22.4925 175.523 22.0208 175.662 21.5059 175.662C20.9316 175.662 20.4508 175.493 20.0635 175.156C19.6761 174.819 19.4209 174.375 19.2978 173.823L19.2226 173.823C19.1224 174.534 18.8581 175.079 18.4297 175.457C18.0013 175.84 17.4681 176.031 16.8301 176.031C16.2604 176.031 15.75 175.869 15.2988 175.546C14.8522 175.222 14.5013 174.778 14.2461 174.213C13.9909 173.648 13.8633 173.001 13.8633 172.271ZM18.9766 188.862L17.5 188.862L17.5 184.282L18.9766 184.282L18.9766 188.862ZM13.8633 200.75C13.8633 200.085 13.9863 199.49 14.2324 198.966C14.4831 198.446 14.8271 198.032 15.2646 197.722C15.7021 197.416 16.2034 197.255 16.7685 197.236L16.7685 199.027C16.3538 199.055 16.0143 199.232 15.75 199.561C15.4857 199.893 15.3535 200.29 15.3535 200.75C15.3535 201.115 15.4355 201.436 15.5996 201.714C15.7682 201.992 15.9984 202.211 16.29 202.37C16.5863 202.534 16.9235 202.616 17.3018 202.616C17.6891 202.616 18.0309 202.534 18.3271 202.37C18.6279 202.206 18.8626 201.98 19.0312 201.693C19.2044 201.406 19.291 201.076 19.291 200.702C19.291 200.392 19.2318 200.091 19.1133 199.8C18.9993 199.508 18.849 199.276 18.6621 199.103L18.9355 197.428L24.1855 197.961L24.1855 203.874L22.6406 203.874L22.6406 199.492L19.9404 199.198L19.9404 199.253C20.1683 199.444 20.3529 199.711 20.4941 200.053C20.64 200.399 20.7129 200.78 20.7129 201.194C20.7129 201.814 20.567 202.363 20.2754 202.842C19.9883 203.325 19.5918 203.705 19.0859 203.983C18.5801 204.261 17.999 204.4 17.3428 204.4C16.6728 204.4 16.0736 204.245 15.5449 203.936C15.0208 203.626 14.6084 203.197 14.3076 202.65C14.0114 202.104 13.8633 201.47 13.8633 200.75Z" fill="#595959"/>
<path d="M48 24H38V239.288V239.5H38.2109L38 239.288L48 229.289V24Z" fill="#272A2A"/>
<path d="M48 241.5L38 251.5H48V241.5Z" fill="#7E7E7E"/>
</svg>
