<svg width="56" height="261" viewBox="0 0 56 261" fill="none" xmlns="http://www.w3.org/2000/svg">
<rect x="39.5" y="40.5" width="25" height="23" rx="11.5" transform="rotate(90 39.5 40.5)" stroke="#595959"/>
<path d="M21.8437 52.625C21.8437 51.9115 21.9792 51.2708 22.25 50.7031C22.526 50.1406 22.9036 49.6901 23.3828 49.3516C23.8672 49.013 24.4167 48.8333 25.0312 48.8125L25.0312 50.5156C24.5365 50.5573 24.1276 50.7786 23.8047 51.1797C23.4818 51.5807 23.3203 52.0625 23.3203 52.625C23.3203 53.0729 23.4245 53.4687 23.6328 53.8125C23.8411 54.1562 24.125 54.4271 24.4844 54.625C24.849 54.8229 25.2656 54.9219 25.7344 54.9219C26.2031 54.9219 26.6224 54.8203 26.9922 54.6172C27.3672 54.4141 27.6615 54.1328 27.875 53.7734C28.0885 53.4193 28.1953 53.0104 28.1953 52.5469C28.1953 52.1927 28.1328 51.8385 28.0078 51.4844C27.888 51.1302 27.7318 50.8437 27.5391 50.625L27.7734 49.0078L33.6406 49.6641L33.6406 56.0625L32.1328 56.0625L32.1328 51.1328L28.875 50.7656L28.875 50.8281C29.099 51.0521 29.2812 51.3516 29.4219 51.7266C29.5677 52.1068 29.6406 52.5156 29.6406 52.9531C29.6406 53.6615 29.4714 54.2917 29.1328 54.8437C28.7995 55.401 28.3411 55.8385 27.7578 56.1562C27.1797 56.474 26.5156 56.6328 25.7656 56.6328C25.0104 56.6328 24.3359 56.4609 23.7422 56.1172C23.1536 55.7734 22.6901 55.2995 22.3516 54.6953C22.013 54.0964 21.8437 53.4062 21.8437 52.625Z" fill="#595959"/>
<g clip-path="url(#clip0_2850_5333)">
<path d="M21.8437 86.8281C21.8437 85.9323 22.0781 85.1641 22.5469 84.5234C23.0156 83.888 23.6927 83.401 24.5781 83.0625C25.4687 82.7292 26.5469 82.5625 27.8125 82.5625C29.0729 82.5625 30.1484 82.7318 31.0391 83.0703C31.9349 83.4089 32.6172 83.8958 33.0859 84.5312C33.5599 85.1719 33.7969 85.9375 33.7969 86.8281C33.7969 87.724 33.5599 88.4896 33.0859 89.125C32.6172 89.7656 31.9349 90.2526 31.0391 90.5859C30.1484 90.9245 29.0729 91.0937 27.8125 91.0937C26.5469 91.0937 25.4687 90.9271 24.5781 90.5937C23.6927 90.2604 23.0156 89.776 22.5469 89.1406C22.0781 88.5052 21.8437 87.7344 21.8437 86.8281ZM23.3437 86.8281C23.3437 87.375 23.5182 87.8359 23.8672 88.2109C24.2161 88.5859 24.724 88.8724 25.3906 89.0703C26.0625 89.2682 26.8698 89.3672 27.8125 89.3672C28.7604 89.3672 29.5677 89.2682 30.2344 89.0703C30.9062 88.8724 31.4167 88.5859 31.7656 88.2109C32.1198 87.8359 32.2969 87.375 32.2969 86.8281C32.2969 86.0208 31.9036 85.3958 31.1172 84.9531C30.3359 84.5156 29.2344 84.2969 27.8125 84.2969C26.8698 84.2969 26.0625 84.3958 25.3906 84.5937C24.724 84.7917 24.2161 85.0781 23.8672 85.4531C23.5182 85.8333 23.3437 86.2917 23.3437 86.8281ZM21.8437 96.5C21.8437 95.6042 22.0781 94.8359 22.5469 94.1953C23.0156 93.5599 23.6927 93.0729 24.5781 92.7344C25.4687 92.401 26.5469 92.2344 27.8125 92.2344C29.0729 92.2344 30.1484 92.4036 31.0391 92.7422C31.9349 93.0807 32.6172 93.5677 33.0859 94.2031C33.5599 94.8437 33.7969 95.6094 33.7969 96.5C33.7969 97.3958 33.5599 98.1615 33.0859 98.7969C32.6172 99.4375 31.9349 99.9245 31.0391 100.258C30.1484 100.596 29.0729 100.766 27.8125 100.766C26.5469 100.766 25.4687 100.599 24.5781 100.266C23.6927 99.9323 23.0156 99.4479 22.5469 98.8125C22.0781 98.1771 21.8437 97.4062 21.8437 96.5ZM23.3437 96.5C23.3437 97.0469 23.5182 97.5078 23.8672 97.8828C24.2161 98.2578 24.724 98.5443 25.3906 98.7422C26.0625 98.9401 26.8698 99.0391 27.8125 99.0391C28.7604 99.0391 29.5677 98.9401 30.2344 98.7422C30.9062 98.5443 31.4167 98.2578 31.7656 97.8828C32.1198 97.5078 32.2969 97.0469 32.2969 96.5C32.2969 95.6927 31.9036 95.0677 31.1172 94.625C30.3359 94.1875 29.2344 93.9687 27.8125 93.9687C26.8698 93.9687 26.0625 94.0677 25.3906 94.2656C24.724 94.4635 24.2161 94.75 23.8672 95.125C23.5182 95.5052 23.3437 95.9635 23.3437 96.5Z" fill="#595959"/>
</g>
<rect x="39.5" y="74.5" width="35" height="23" rx="11.5" transform="rotate(90 39.5 74.5)" stroke="#595959"/>
<path d="M40 124.5L40 121.232L36.7676 118L18.7676 118L16 120.768L16 124.5" stroke="#595959"/>
<g clip-path="url(#clip1_2850_5333)">
<path d="M21.8437 130.297C21.8437 129.297 22.0833 128.401 22.5625 127.609C23.0417 126.818 23.7266 126.195 24.6172 125.742C25.513 125.289 26.5781 125.062 27.8125 125.062C29.0573 125.062 30.125 125.289 31.0156 125.742C31.9115 126.201 32.599 126.823 33.0781 127.609C33.5573 128.401 33.7969 129.297 33.7969 130.297C33.7969 130.911 33.7083 131.487 33.5312 132.023C33.3542 132.565 33.0964 133.049 32.7578 133.477C32.4193 133.904 32.0052 134.255 31.5156 134.531C31.026 134.812 30.4714 135 29.8516 135.094L29.8516 133.328C30.2318 133.26 30.5651 133.133 30.8516 132.945C31.1432 132.763 31.388 132.536 31.5859 132.266C31.7891 132 31.9401 131.701 32.0391 131.367C32.1432 131.039 32.1953 130.69 32.1953 130.32C32.1953 129.654 32.026 129.052 31.6875 128.516C31.3542 127.984 30.8594 127.565 30.2031 127.258C29.5521 126.956 28.7552 126.805 27.8125 126.805C26.8646 126.805 26.0651 126.958 25.4141 127.266C24.7682 127.573 24.2786 127.992 23.9453 128.523C23.612 129.055 23.4453 129.651 23.4453 130.312C23.4453 130.682 23.4948 131.031 23.5937 131.359C23.6927 131.687 23.8411 131.987 24.0391 132.258C24.237 132.529 24.4766 132.755 24.7578 132.937C25.0443 133.125 25.375 133.255 25.75 133.328L25.75 135.094C25.1719 135.005 24.6432 134.826 24.1641 134.555C23.6901 134.284 23.2786 133.937 22.9297 133.516C22.5859 133.094 22.3177 132.612 22.125 132.07C21.9375 131.529 21.8437 130.937 21.8437 130.297ZM22 136.531L33.6406 136.531L33.6406 138.289L28.5781 138.289L28.5781 144.086L33.6406 144.086L33.6406 145.844L22 145.844L22 144.086L27.0703 144.086L27.0703 138.289L22 138.289L22 136.531ZM33.6406 149.477L22 149.477L22 147.719L33.6406 147.719L33.6406 149.477ZM22 151.359L33.6406 151.359L33.6406 153.117L23.5078 153.117L23.5078 158.391L22 158.391L22 151.359ZM33.6406 161.477L22 161.477L22 159.719L33.6406 159.719L33.6406 161.477ZM22 163.055L23.1641 163.055L32.1328 169.18L32.1328 163.008L33.6406 163.008L33.6406 171.336L32.4687 171.336L23.5078 165.211L23.5078 171.383L22 171.383L22 163.055Z" fill="#595959"/>
</g>
<path d="M39.5 124.5L39.5 172.5L40.5 172.5L40.5 124.5L39.5 124.5ZM16.5 172.5L16.5 124.5L15.5 124.5L15.5 172.5L16.5 172.5Z" fill="#595959"/>
<path d="M40 172.5L40 175.768L36.7676 179L18.7676 179L16 176.232L16 172.5" stroke="#595959"/>
<g clip-path="url(#clip2_2850_5333)">
<path fill-rule="evenodd" clip-rule="evenodd" d="M24.8521 201.057C24.3419 201.939 24.0721 202.947 24.0721 203.971L24.0731 203.971C24.0731 207.184 26.6878 209.799 29.9009 209.799C31.9744 209.799 33.9084 208.682 34.9481 206.886C35.0587 206.694 34.9935 206.449 34.8017 206.338C34.6099 206.227 34.3647 206.293 34.2541 206.484C33.3571 208.035 31.6891 208.998 29.9004 208.998C27.1286 208.998 24.874 206.742 24.874 203.971C24.874 203.088 25.1064 202.218 25.5461 201.458C25.6567 201.267 25.5915 201.022 25.3997 200.91C25.2079 200.8 24.9632 200.866 24.8521 201.057ZM21.031 203.971C21.031 199.081 25.0096 195.102 29.8998 195.102C30.121 195.102 30.3005 195.282 30.3005 195.503C30.3005 195.724 30.121 195.904 29.8998 195.904C25.4515 195.904 21.8324 199.523 21.8324 203.971C21.8324 208.42 25.4515 212.039 29.8998 212.039C30.121 212.039 30.3005 212.218 30.3005 212.439C30.3005 212.661 30.121 212.84 29.8998 212.84C25.0096 212.84 21.031 208.861 21.031 203.971ZM22.5515 203.971C22.5515 202.679 22.8918 201.408 23.5356 200.296C24.1602 199.217 25.0551 198.307 26.1241 197.666C26.3138 197.552 26.5601 197.613 26.6739 197.803C26.7877 197.993 26.7262 198.239 26.5366 198.353C25.5834 198.925 24.7858 199.735 24.2291 200.697C23.6558 201.687 23.3529 202.819 23.3529 203.971C23.3529 207.581 26.2897 210.518 29.8998 210.518C30.121 210.518 30.3005 210.697 30.3005 210.918C30.3005 211.14 30.121 211.319 29.8998 211.319C25.8479 211.319 22.5515 208.023 22.5515 203.971L22.5515 203.971ZM25.5931 203.971C25.5931 203.75 25.7726 203.571 25.9938 203.571C26.2149 203.571 26.3945 203.75 26.3945 203.971C26.3945 205.904 27.9668 207.477 29.8998 207.477C30.121 207.477 30.3005 207.656 30.3005 207.877C30.3005 208.098 30.121 208.278 29.8998 208.278C27.525 208.278 25.5931 206.346 25.5931 203.971ZM27.6329 204.818C27.5041 204.892 27.4325 205.027 27.4325 205.165C27.4325 205.233 27.4502 205.302 27.4865 205.365C27.9839 206.224 28.9082 206.758 29.8998 206.758C30.121 206.758 30.3005 206.579 30.3005 206.357C30.3005 206.136 30.121 205.957 29.8998 205.957C29.1935 205.957 28.5347 205.576 28.1805 204.964C28.0694 204.772 27.8242 204.706 27.6329 204.818Z" fill="#595959"/>
</g>
<rect x="39.5" y="187.5" width="32.7761" height="23" rx="11.5" transform="rotate(90 39.5 187.5)" stroke="#595959"/>
<defs>
<clipPath id="clip0_2850_5333">
<rect x="40" y="74" width="36" height="24" rx="12" transform="rotate(90 40 74)" fill="white"/>
</clipPath>
<clipPath id="clip1_2850_5333">
<path d="M40 124.5L40 172.5L16 172.5L16 124.5L40 124.5Z" fill="white"/>
</clipPath>
<clipPath id="clip2_2850_5333">
<rect x="40" y="187" width="33.7761" height="24" rx="12" transform="rotate(90 40 187)" fill="white"/>
</clipPath>
</defs>
</svg>
