<svg width="21" height="20" viewBox="0 0 21 20" fill="none" xmlns="http://www.w3.org/2000/svg">
<g clip-path="url(#clip0_3324_353)">
<path d="M1.38477 16.875L0.636622 16.8223L0.580036 17.625H1.38477V16.875ZM12.0991 16.875V17.625H12.9038L12.8472 16.8223L12.0991 16.875ZM19.7181 16.875V17.625H20.5229L20.4663 16.8223L19.7181 16.875ZM8.75976 5.83333C8.75976 6.91489 7.88299 7.79167 6.80143 7.79167V9.29167C8.71142 9.29167 10.2598 7.74332 10.2598 5.83333H8.75976ZM6.80143 7.79167C5.71987 7.79167 4.8431 6.91489 4.8431 5.83333H3.3431C3.3431 7.74332 4.89145 9.29167 6.80143 9.29167V7.79167ZM4.8431 5.83333C4.8431 4.75178 5.71987 3.875 6.80143 3.875V2.375C4.89145 2.375 3.3431 3.92335 3.3431 5.83333H4.8431ZM6.80143 3.875C7.88299 3.875 8.75976 4.75178 8.75976 5.83333H10.2598C10.2598 3.92335 8.71142 2.375 6.80143 2.375V3.875ZM16.2598 5.83333C16.2598 6.91489 15.383 7.79167 14.3014 7.79167V9.29167C16.2114 9.29167 17.7598 7.74332 17.7598 5.83333H16.2598ZM14.3014 7.79167C13.2199 7.79167 12.3431 6.91489 12.3431 5.83333H10.8431C10.8431 7.74332 12.3914 9.29167 14.3014 9.29167V7.79167ZM12.3431 5.83333C12.3431 4.75178 13.2199 3.875 14.3014 3.875V2.375C12.3914 2.375 10.8431 3.92335 10.8431 5.83333H12.3431ZM14.3014 3.875C15.383 3.875 16.2598 4.75178 16.2598 5.83333H17.7598C17.7598 3.92335 16.2114 2.375 14.3014 2.375V3.875ZM1.38477 17.625H12.0991V16.125H1.38477V17.625ZM2.13291 16.9277C2.40515 13.0657 4.68656 11.375 6.74191 11.375C8.79726 11.375 11.0787 13.0657 11.3509 16.9277L12.8472 16.8223C12.532 12.351 9.74999 9.875 6.74191 9.875C3.73383 9.875 0.95181 12.351 0.636622 16.8223L2.13291 16.9277ZM12.3645 11.9229C13.6446 11.1744 15.1827 11.1924 16.4511 11.9793C17.713 12.7621 18.7893 14.3642 18.97 16.9277L20.4663 16.8223C20.2585 13.875 18.9889 11.7884 17.2418 10.7046C15.5014 9.62499 13.3676 9.59871 11.6073 10.628L12.3645 11.9229ZM13.8847 17.625H19.7181V16.125H13.8847V17.625Z" fill="#D3D3D3"/>
</g>
<defs>
<clipPath id="clip0_3324_353">
<rect width="20" height="20" fill="white" transform="translate(0.551758)"/>
</clipPath>
</defs>
</svg>
