<svg width="45" height="25" viewBox="0 0 45 25" fill="none" xmlns="http://www.w3.org/2000/svg">
<path d="M23.0448 19.4691C22.6435 18.9322 21.8196 18.9322 21.4184 19.4691C19.2903 22.3165 15.8857 24.1603 12.0481 24.1603C5.5998 24.1603 0.375 18.9542 0.375 12.5353C0.375 6.11638 5.5998 0.910278 12.0481 0.910278C15.8857 0.910278 19.2903 2.75405 21.4184 5.60151C21.8196 6.13839 22.6435 6.13839 23.0448 5.60151C25.1729 2.75405 28.5775 0.910278 32.4151 0.910278C38.8634 0.910278 44.0882 6.11638 44.0882 12.5353C44.0882 18.9542 38.8634 24.1603 32.4151 24.1603C28.5775 24.1603 25.1729 22.3165 23.0448 19.4691Z" stroke="#7E7E7E" stroke-width="0.75"/>
<path d="M20.0884 12.5353C20.0884 15.7809 19.16 18.7033 17.6782 20.8044C16.1956 22.9066 14.1826 24.1603 12.0003 24.1603C9.81791 24.1603 7.80493 22.9066 6.32236 20.8044C4.8405 18.7033 3.91211 15.7809 3.91211 12.5353C3.91211 9.28968 4.8405 6.36727 6.32236 4.26613C7.80493 2.16398 9.81791 0.910278 12.0003 0.910278C14.1826 0.910278 16.1956 2.16398 17.6782 4.26613C19.16 6.36727 20.0884 9.28968 20.0884 12.5353Z" stroke="#7E7E7E" stroke-width="0.75"/>
<path d="M40.6783 12.5353C40.6783 15.7809 39.7499 18.7033 38.268 20.8044C36.7854 22.9066 34.7725 24.1603 32.5901 24.1603C30.4078 24.1603 28.3948 22.9066 26.9122 20.8044C25.4303 18.7033 24.502 15.7809 24.502 12.5353C24.502 9.28968 25.4303 6.36727 26.9122 4.26613C28.3948 2.16398 30.4078 0.910278 32.5901 0.910278C34.7725 0.910278 36.7854 2.16398 38.268 4.26613C39.7499 6.36727 40.6783 9.28968 40.6783 12.5353Z" stroke="#7E7E7E" stroke-width="0.75"/>
<path d="M14.9083 12.5353C14.9083 15.8254 14.5429 18.7906 13.9596 20.9216C13.6673 21.9897 13.3259 22.8271 12.9626 23.3885C12.5886 23.9665 12.2545 24.1603 11.9991 24.1603C11.7436 24.1603 11.4095 23.9665 11.0355 23.3885C10.6722 22.8271 10.3308 21.9897 10.0385 20.9216C9.45524 18.7906 9.08984 15.8254 9.08984 12.5353C9.08984 9.24514 9.45524 6.28 10.0385 4.14899C10.3308 3.08081 10.6722 2.2435 11.0355 1.68202C11.4095 1.10405 11.7436 0.910278 11.9991 0.910278C12.2545 0.910278 12.5886 1.10405 12.9626 1.68202C13.3259 2.2435 13.6673 3.08081 13.9596 4.14899C14.5429 6.28 14.9083 9.24514 14.9083 12.5353Z" stroke="#7E7E7E" stroke-width="0.75"/>
<path d="M35.5001 12.5353C35.5001 15.8254 35.1347 18.7906 34.5514 20.9216C34.2591 21.9897 33.9177 22.8271 33.5544 23.3885C33.1804 23.9665 32.8463 24.1603 32.5909 24.1603C32.3354 24.1603 32.0013 23.9665 31.6273 23.3885C31.264 22.8271 30.9226 21.9897 30.6303 20.9216C30.047 18.7906 29.6816 15.8254 29.6816 12.5353C29.6816 9.24514 30.047 6.28 30.6303 4.14899C30.9226 3.08081 31.264 2.2435 31.6273 1.68202C32.0013 1.10405 32.3354 0.910278 32.5909 0.910278C32.8463 0.910278 33.1804 1.10405 33.5544 1.68202C33.9177 2.2435 34.2591 3.08081 34.5514 4.14899C35.1347 6.28 35.5001 9.24514 35.5001 12.5353Z" stroke="#7E7E7E" stroke-width="0.75"/>
<mask id="path-6-inside-1_3287_28427" fill="white">
<path fill-rule="evenodd" clip-rule="evenodd" d="M18.92 18.5215C20.9395 17.6497 23.5254 17.6497 25.5449 18.5215C27.5004 19.3656 29.8877 19.8616 32.4648 19.8616C39.0923 19.8616 44.4648 16.5815 44.4648 12.5353C44.4648 8.48909 39.0923 5.20898 32.4648 5.20898C29.8877 5.20898 27.5004 5.70496 25.5449 6.5491C23.5254 7.42086 20.9394 7.42086 18.92 6.5491C16.9645 5.70496 14.5771 5.20899 12 5.20899C5.37258 5.20899 0 8.48909 0 12.5353C0 16.5815 5.37258 19.8616 12 19.8616C14.5771 19.8616 16.9645 19.3656 18.92 18.5215Z"/>
</mask>
<path d="M32.4648 19.8616V19.1116V19.8616ZM12 5.20899V4.45899V5.20899ZM25.5449 6.5491L25.2476 5.86052L25.5449 6.5491ZM18.92 6.5491L18.6227 7.23768L18.92 6.5491ZM32.4648 19.1116C29.9806 19.1116 27.6955 18.633 25.8421 17.8329L25.2476 19.2101C27.3052 20.0983 29.7949 20.6116 32.4648 20.6116V19.1116ZM43.7148 12.5353C43.7148 14.1979 42.608 15.8249 40.5593 17.0757C38.5236 18.3185 35.6637 19.1116 32.4648 19.1116V20.6116C35.8934 20.6116 39.0335 19.7647 41.3409 18.3559C43.6354 16.9551 45.2148 14.9189 45.2148 12.5353H43.7148ZM32.4648 5.95898C35.6637 5.95898 38.5236 6.75211 40.5593 7.99494C42.608 9.24569 43.7148 10.8727 43.7148 12.5353H45.2148C45.2148 10.1517 43.6354 8.11554 41.3409 6.71468C39.0335 5.30591 35.8934 4.45898 32.4648 4.45898V5.95898ZM25.8421 7.23768C27.6955 6.43762 29.9806 5.95898 32.4648 5.95898V4.45898C29.7949 4.45898 27.3052 4.97231 25.2476 5.86052L25.8421 7.23768ZM12 5.95899C14.4842 5.95899 16.7693 6.43762 18.6227 7.23768L19.2172 5.86052C17.1596 4.97231 14.67 4.45899 12 4.45899V5.95899ZM0.75 12.5353C0.75 10.8727 1.85689 9.24569 3.90553 7.99494C5.9412 6.75211 8.80117 5.95899 12 5.95899V4.45899C8.57142 4.45899 5.43138 5.30591 3.1239 6.71469C0.829401 8.11554 -0.75 10.1517 -0.75 12.5353H0.75ZM12 19.1116C8.80117 19.1116 5.9412 18.3185 3.90553 17.0757C1.85689 15.8249 0.75 14.1979 0.75 12.5353H-0.75C-0.75 14.9189 0.829401 16.9551 3.1239 18.3559C5.43138 19.7647 8.57142 20.6116 12 20.6116V19.1116ZM18.6227 17.8329C16.7693 18.633 14.4842 19.1116 12 19.1116V20.6116C14.67 20.6116 17.1596 20.0983 19.2172 19.2101L18.6227 17.8329ZM25.2476 5.86052C23.4178 6.65038 21.047 6.65039 19.2172 5.86052L18.6227 7.23768C20.8319 8.19133 23.6329 8.19133 25.8421 7.23768L25.2476 5.86052ZM25.8421 17.8329C23.6329 16.8793 20.8319 16.8793 18.6227 17.8329L19.2172 19.2101C21.047 18.4202 23.4179 18.4202 25.2476 19.2101L25.8421 17.8329Z" fill="#7E7E7E" mask="url(#path-6-inside-1_3287_28427)"/>
<mask id="path-8-inside-2_3287_28427" fill="white">
<path fill-rule="evenodd" clip-rule="evenodd" d="M21.608 13.9734C22.0169 13.8643 22.448 13.8643 22.8568 13.9734C25.0457 14.5574 28.5346 14.9352 32.4648 14.9352C39.0923 14.9352 44.4648 13.8607 44.4648 12.5353C44.4648 11.2098 39.0923 10.1353 32.4648 10.1353C28.5346 10.1353 25.0457 10.5132 22.8568 11.0972C22.448 11.2063 22.0169 11.2063 21.608 11.0972C19.4191 10.5132 15.9302 10.1353 12 10.1353C5.37258 10.1353 0 11.2098 0 12.5353C0 13.8607 5.37258 14.9352 12 14.9352C15.9302 14.9352 19.4192 14.5574 21.608 13.9734Z"/>
</mask>
<path d="M32.4648 14.9352V14.1852V14.9352ZM12 10.1353V9.3853V10.1353ZM12 14.9352V15.6852V14.9352ZM22.8568 11.0972L23.0502 11.8218L22.8568 11.0972ZM21.608 11.0972L21.4146 11.8218L21.608 11.0972ZM22.8568 13.9734L22.6635 14.698L22.8568 13.9734ZM32.4648 14.1852C28.5681 14.1852 25.1513 13.8093 23.0502 13.2487L22.6635 14.698C24.9401 15.3054 28.5011 15.6852 32.4648 15.6852V14.1852ZM43.7148 12.5353C43.7148 12.4282 43.7724 12.4087 43.6968 12.4826C43.62 12.5576 43.4665 12.666 43.2012 12.7914C42.6744 13.0405 41.8643 13.2846 40.803 13.4969C38.693 13.9189 35.7446 14.1852 32.4648 14.1852V15.6852C35.8125 15.6852 38.8641 15.4144 41.0972 14.9677C42.2076 14.7457 43.1548 14.4726 43.8424 14.1475C44.1844 13.9858 44.5024 13.7927 44.7453 13.5553C44.9894 13.3167 45.2148 12.9737 45.2148 12.5353H43.7148ZM32.4648 10.8853C35.7446 10.8853 38.693 11.1517 40.803 11.5737C41.8643 11.7859 42.6744 12.03 43.2012 12.2791C43.4665 12.4046 43.62 12.5129 43.6968 12.588C43.7724 12.6618 43.7148 12.6423 43.7148 12.5353H45.2148C45.2148 12.0968 44.9894 11.7539 44.7453 11.5152C44.5024 11.2778 44.1844 11.0848 43.8424 10.9231C43.1548 10.5979 42.2076 10.3249 41.0972 10.1028C38.8641 9.65619 35.8125 9.3853 32.4648 9.3853V10.8853ZM23.0502 11.8218C25.1513 11.2612 28.5681 10.8853 32.4648 10.8853V9.3853C28.5011 9.3853 24.9401 9.76511 22.6635 10.3725L23.0502 11.8218ZM12 10.8853C15.8967 10.8853 19.3136 11.2612 21.4146 11.8218L21.8013 10.3725C19.5247 9.76512 15.9637 9.3853 12 9.3853V10.8853ZM0.75 12.5353C0.75 12.6423 0.692473 12.6618 0.768022 12.588C0.844822 12.5129 0.99832 12.4046 1.26362 12.2791C1.79041 12.03 2.60059 11.7859 3.6618 11.5737C5.77187 11.1517 8.72027 10.8853 12 10.8853V9.3853C8.65232 9.3853 5.60071 9.65619 3.36763 10.1028C2.25727 10.3249 1.31009 10.5979 0.622418 10.9231C0.280486 11.0848 -0.0375257 11.2778 -0.280427 11.5152C-0.52458 11.7539 -0.75 12.0968 -0.75 12.5353H0.75ZM12 14.1852C8.72027 14.1852 5.77187 13.9189 3.6618 13.4969C2.60059 13.2846 1.79041 13.0405 1.26362 12.7914C0.99832 12.666 0.844822 12.5576 0.768022 12.4826C0.692473 12.4087 0.75 12.4282 0.75 12.5353H-0.75C-0.75 12.9737 -0.52458 13.3167 -0.280427 13.5553C-0.0375257 13.7927 0.280486 13.9858 0.622418 14.1475C1.31009 14.4726 2.25727 14.7457 3.36763 14.9677C5.60071 15.4144 8.65232 15.6852 12 15.6852V14.1852ZM21.4147 13.2487C19.3136 13.8093 15.8967 14.1852 12 14.1852V15.6852C15.9637 15.6852 19.5247 15.3054 21.8013 14.698L21.4147 13.2487ZM22.6635 10.3725C22.3813 10.4478 22.0835 10.4478 21.8013 10.3725L21.4146 11.8218C21.9502 11.9647 22.5146 11.9647 23.0502 11.8218L22.6635 10.3725ZM23.0502 13.2487C22.5146 13.1058 21.9502 13.1058 21.4147 13.2487L21.8013 14.698C22.0836 14.6227 22.3813 14.6227 22.6635 14.698L23.0502 13.2487Z" fill="#7E7E7E" mask="url(#path-8-inside-2_3287_28427)"/>
</svg>
