<svg width="36" height="28" viewBox="0 0 36 28" fill="none" xmlns="http://www.w3.org/2000/svg">
<path fill-rule="evenodd" clip-rule="evenodd" d="M12.1158 20.2928C13.88 21.3133 15.8952 21.8529 17.9447 21.8529L17.9436 21.8508C24.3708 21.8508 29.5991 16.6214 29.5991 10.1952C29.5991 6.04826 27.367 2.18018 23.7735 0.100821C23.3899 -0.120365 22.9005 0.00999549 22.6782 0.393598C22.4571 0.7772 22.5874 1.26766 22.971 1.48884C26.0719 3.2829 27.9974 6.61885 27.9974 10.1963C27.9974 15.7398 23.4871 20.249 17.9447 20.249C16.1773 20.249 14.4388 19.7842 12.9183 18.9048C12.5358 18.6836 12.0453 18.814 11.823 19.1976C11.6019 19.5812 11.7333 20.0706 12.1158 20.2928ZM17.9446 27.9351C8.16438 27.9351 0.207031 19.9778 0.207031 10.1975C0.207031 9.75517 0.566057 9.39614 1.00843 9.39614C1.4508 9.39614 1.80983 9.75517 1.80983 10.1975C1.80983 19.0941 9.04805 26.3324 17.9446 26.3324C26.8412 26.3324 34.0794 19.0941 34.0794 10.1975C34.0794 9.75517 34.4385 9.39614 34.8808 9.39614C35.3232 9.39614 35.6822 9.75517 35.6822 10.1975C35.6822 19.9778 27.7249 27.9351 17.9446 27.9351ZM17.9444 24.8941C15.3597 24.8941 12.8176 24.2135 10.593 22.9259C8.4356 21.6768 6.61696 19.887 5.33365 17.7488C5.10606 17.3695 5.22894 16.8769 5.60827 16.6493C5.9876 16.4217 6.48019 16.5446 6.70779 16.9239C7.85111 18.8302 9.47207 20.4255 11.3954 21.5389C13.3765 22.6855 15.6407 23.2913 17.9434 23.2913C25.1634 23.2913 31.0372 17.4176 31.0372 10.1975C31.0372 9.75517 31.3962 9.39614 31.8386 9.39614C32.2809 9.39614 32.6399 9.75517 32.6399 10.1975C32.6399 18.3013 26.0471 24.8941 17.9434 24.8941H17.9444ZM17.9446 18.811C17.5022 18.811 17.1432 18.4519 17.1432 18.0096C17.1432 17.5672 17.5022 17.2082 17.9446 17.2082C21.8105 17.2082 24.9552 14.0635 24.9552 10.1975C24.9552 9.75517 25.3142 9.39614 25.7566 9.39614C26.199 9.39614 26.558 9.75517 26.558 10.1975C26.558 14.9472 22.6942 18.811 17.9446 18.811ZM19.6372 14.7313C19.7858 14.9888 20.055 15.132 20.3318 15.132C20.4686 15.132 20.6064 15.0968 20.7325 15.0241C22.4507 14.0293 23.5181 12.1807 23.5181 10.1975C23.5181 9.75517 23.1591 9.39614 22.7167 9.39614C22.2744 9.39614 21.9154 9.75517 21.9154 10.1975C21.9154 11.6101 21.1546 12.9276 19.93 13.6361C19.5464 13.8583 19.415 14.3488 19.6372 14.7313Z" fill="white"/>
</svg>
