<svg width="20" height="21" viewBox="0 0 20 21" fill="none" xmlns="http://www.w3.org/2000/svg">
<g clip-path="url(#clip0_3666_413)">
<path d="M19.9998 10.3024C19.9998 12.9519 19.5557 15.101 19.0078 15.101C18.4599 15.101 18.0161 12.9525 18.0161 10.3024C18.0161 7.65244 18.4601 5.50391 19.0078 5.50391C19.5555 5.50391 19.9998 7.65225 19.9998 10.3024Z" fill="#D3D3D3"/>
<path d="M17.4683 10.3027C17.4683 13.2605 16.2056 15.6592 14.648 15.6592C13.0903 15.6592 11.8276 13.2605 11.8276 10.3027C11.8276 7.34498 13.0902 4.94629 14.6478 4.94629C16.2054 4.94629 17.4681 7.34422 17.4681 10.3027" fill="#D3D3D3"/>
<path d="M11.2812 10.3025C11.2812 13.4448 8.75578 15.9921 5.6407 15.9921C2.52561 15.9921 0 13.4442 0 10.3025C0 7.16085 2.52542 4.61279 5.6407 4.61279C8.75598 4.61279 11.2812 7.16028 11.2812 10.3025Z" fill="#D3D3D3"/>
</g>
<defs>
<clipPath id="clip0_3666_413">
<rect width="20" height="20" fill="white" transform="translate(0 0.446289)"/>
</clipPath>
</defs>
</svg>
