<svg width="21" height="20" viewBox="0 0 21 20" fill="none" xmlns="http://www.w3.org/2000/svg">
    <path
        d="M7.00977 18.3333H6.25977V19.5151L7.32911 19.0119L7.00977 18.3333ZM10.5514 16.6666L10.8708 15.988L10.5514 15.8378L10.2321 15.988L10.5514 16.6666ZM14.0931 18.3333L13.7738 19.0119L14.8431 19.5151V18.3333H14.0931ZM14.8431 12.5V11.75H13.3431V12.5H14.8431ZM6.25977 12.5V18.3333H7.75977V12.5H6.25977ZM7.32911 19.0119L10.8708 17.3453L10.2321 15.988L6.69042 17.6547L7.32911 19.0119ZM10.2321 17.3453L13.7738 19.0119L14.4124 17.6547L10.8708 15.988L10.2321 17.3453ZM14.8431 18.3333V12.5H13.3431V18.3333H14.8431ZM15.8431 7.49998C15.8431 10.4225 13.4739 12.7916 10.5514 12.7916V14.2916C14.3024 14.2916 17.3431 11.2509 17.3431 7.49998H15.8431ZM10.5514 12.7916C7.62893 12.7916 5.25977 10.4225 5.25977 7.49998H3.75977C3.75977 11.2509 6.8005 14.2916 10.5514 14.2916V12.7916ZM5.25977 7.49998C5.25977 4.57747 7.62893 2.20831 10.5514 2.20831V0.708313C6.8005 0.708313 3.75977 3.74905 3.75977 7.49998H5.25977ZM10.5514 2.20831C13.4739 2.20831 15.8431 4.57747 15.8431 7.49998H17.3431C17.3431 3.74905 14.3024 0.708313 10.5514 0.708313V2.20831Z"
        fill="#D3D3D3" />
</svg>